<?xml version="1.0" encoding="utf-8"?>
<!-- Generator: Adobe Illustrator 25.2.1, SVG Export Plug-In . SVG Version: 6.00 Build 0)  -->
<svg version="1.1" xmlns="http://www.w3.org/2000/svg" xmlns:xlink="http://www.w3.org/1999/xlink" x="0px" y="0px"
	 viewBox="0 0 349 162" style="enable-background:new 0 0 349 162;" xml:space="preserve">
<style type="text/css">
	.st0{fill:none;stroke:#000000;stroke-width:0.08;stroke-linecap:round;stroke-linejoin:round;}
	.st1{stroke:#000000;stroke-width:1.2312;stroke-miterlimit:10;}
	.st2{stroke:#000000;stroke-width:0.8504;stroke-miterlimit:10;}
</style>
<g id="Слой_1">
	<g>
		<path class="st1" d="M18.27,107.85c0,1.19-0.14,2.34-0.43,3.46c-0.28,1.12-0.76,2.12-1.42,3.02c-0.66,0.89-1.55,1.6-2.67,2.14
			c-1.12,0.54-2.52,0.81-4.19,0.81H1.03V59.25h8.54c1.67,0,3.07,0.27,4.19,0.81c1.12,0.54,2.01,1.25,2.67,2.15
			c0.66,0.89,1.13,1.9,1.42,3.03c0.28,1.13,0.43,2.29,0.43,3.48V107.85z M9.57,115.62c1.38,0,2.51-0.23,3.42-0.69
			c0.9-0.46,1.63-1.05,2.16-1.78c0.54-0.73,0.92-1.56,1.13-2.49c0.22-0.93,0.32-1.87,0.32-2.81V68.72c0-0.94-0.11-1.88-0.32-2.81
			c-0.22-0.93-0.59-1.77-1.13-2.51s-1.26-1.34-2.16-1.8c-0.9-0.46-2.04-0.69-3.42-0.69H2.69v54.71H9.57z"/>
		<path class="st1" d="M25.73,116.35c0.16,0.22,0.24,0.44,0.24,0.69c0,0.3-0.11,0.55-0.32,0.75c-0.22,0.2-0.47,0.3-0.77,0.3
			c-0.3,0-0.55-0.1-0.75-0.3c-0.2-0.2-0.3-0.45-0.3-0.75c0-0.24,0.08-0.47,0.24-0.69V76.86c-0.16-0.27-0.24-0.53-0.24-0.77
			c0-0.3,0.1-0.55,0.3-0.75c0.2-0.2,0.45-0.3,0.75-0.3c0.3,0,0.55,0.1,0.77,0.3c0.22,0.2,0.32,0.45,0.32,0.75
			c0,0.24-0.08,0.5-0.24,0.77v2.87c0.76-1.29,1.67-2.27,2.75-2.91c1.08-0.65,2.45-0.97,4.13-0.97h1.42
			c0.24-0.16,0.49-0.24,0.73-0.24c0.3,0,0.55,0.1,0.77,0.3c0.22,0.2,0.32,0.45,0.32,0.75c0,0.3-0.11,0.55-0.32,0.77
			c-0.22,0.22-0.47,0.32-0.77,0.32c-0.24,0-0.49-0.08-0.73-0.24h-1.42c-1.16,0-2.17,0.23-3.04,0.69c-0.86,0.46-1.58,1.07-2.14,1.82
			c-0.57,0.76-0.99,1.6-1.27,2.53c-0.28,0.93-0.43,1.88-0.43,2.85V116.35z"/>
		<path class="st1" d="M56.13,94.01H40.72v14.57c0,0.97,0.12,1.93,0.34,2.87c0.23,0.94,0.61,1.79,1.13,2.53
			c0.53,0.74,1.23,1.34,2.12,1.8c0.89,0.46,1.98,0.69,3.28,0.69c1.27,0,2.33-0.2,3.2-0.61c0.86-0.41,1.56-0.94,2.08-1.6
			c0.53-0.66,0.91-1.42,1.15-2.29c0.24-0.86,0.39-1.75,0.44-2.67c-0.08-0.08-0.15-0.19-0.2-0.32c-0.05-0.14-0.08-0.24-0.08-0.32
			c0-0.3,0.11-0.55,0.32-0.77c0.22-0.22,0.47-0.32,0.77-0.32c0.3,0,0.55,0.11,0.77,0.32c0.22,0.22,0.32,0.47,0.32,0.77
			c0,0.08-0.02,0.19-0.06,0.32c-0.04,0.13-0.1,0.24-0.18,0.32c-0.08,1.13-0.28,2.23-0.59,3.28c-0.31,1.05-0.79,1.98-1.44,2.79
			c-0.65,0.81-1.5,1.46-2.57,1.96s-2.38,0.75-3.94,0.75c-1.62,0-2.97-0.28-4.07-0.83c-1.09-0.55-1.97-1.27-2.63-2.16
			c-0.66-0.89-1.13-1.9-1.42-3.03c-0.28-1.13-0.43-2.29-0.43-3.48V84.55c0-1.19,0.14-2.35,0.43-3.48c0.28-1.13,0.75-2.14,1.42-3.03
			c0.66-0.89,1.54-1.61,2.63-2.17c1.09-0.55,2.45-0.83,4.07-0.83c1.62,0,2.97,0.28,4.05,0.83c1.08,0.55,1.96,1.27,2.63,2.17
			c0.67,0.89,1.15,1.9,1.44,3.03c0.28,1.13,0.42,2.29,0.42,3.48V94.01z M54.48,92.35v-7.81c0-0.94-0.11-1.89-0.32-2.83
			c-0.22-0.94-0.59-1.79-1.11-2.53c-0.53-0.74-1.23-1.35-2.12-1.82c-0.89-0.47-2-0.71-3.32-0.71c-1.29,0-2.39,0.24-3.28,0.71
			c-0.89,0.47-1.6,1.08-2.12,1.82c-0.53,0.74-0.9,1.58-1.13,2.53c-0.23,0.94-0.34,1.89-0.34,2.83v7.81H54.48z"/>
		<path class="st1" d="M75.41,99.72c0.7,0.65,1.28,1.31,1.74,1.98c0.46,0.68,0.81,1.36,1.07,2.06c0.26,0.7,0.43,1.4,0.53,2.1
			c0.09,0.7,0.14,1.39,0.14,2.06c0,1.4-0.14,2.72-0.43,3.96c-0.28,1.24-0.77,2.32-1.46,3.24c-0.69,0.92-1.61,1.64-2.77,2.16
			c-1.16,0.53-2.62,0.79-4.37,0.79c-1.67,0-3.08-0.26-4.21-0.77c-1.13-0.51-2.06-1.19-2.77-2.04c-0.72-0.85-1.25-1.83-1.6-2.93
			c-0.35-1.11-0.55-2.25-0.61-3.44c-0.08-0.08-0.14-0.19-0.18-0.32c-0.04-0.13-0.06-0.27-0.06-0.4c0-0.3,0.1-0.55,0.3-0.77
			c0.2-0.22,0.45-0.32,0.75-0.32c0.3,0,0.55,0.11,0.77,0.32c0.22,0.22,0.32,0.47,0.32,0.77c0,0.11-0.05,0.27-0.16,0.49
			c0.03,0.97,0.18,1.93,0.47,2.87c0.28,0.94,0.71,1.79,1.29,2.53c0.58,0.74,1.34,1.34,2.27,1.8c0.93,0.46,2.07,0.69,3.42,0.69
			c1.56,0,2.83-0.25,3.8-0.75c0.97-0.5,1.73-1.16,2.27-1.98c0.54-0.82,0.9-1.75,1.07-2.77c0.17-1.03,0.26-2.06,0.26-3.12
			c0-1.38-0.25-2.67-0.75-3.86c-0.5-1.2-1.25-2.27-2.25-3.22l-9.39-8.42c-0.65-0.59-1.17-1.18-1.56-1.76
			c-0.39-0.58-0.69-1.19-0.91-1.82c-0.22-0.63-0.36-1.29-0.44-1.96c-0.08-0.68-0.12-1.4-0.12-2.19c0-1.27,0.15-2.48,0.44-3.64
			c0.3-1.16,0.79-2.18,1.48-3.08c0.69-0.89,1.58-1.6,2.69-2.14c1.11-0.54,2.47-0.81,4.09-0.81c1.46,0,2.7,0.24,3.72,0.73
			c1.02,0.49,1.86,1.13,2.51,1.94c0.65,0.81,1.13,1.73,1.46,2.77c0.32,1.04,0.51,2.12,0.57,3.26c0.19,0.16,0.28,0.38,0.28,0.65
			c0,0.3-0.11,0.55-0.32,0.77c-0.22,0.22-0.47,0.32-0.77,0.32c-0.24,0-0.47-0.11-0.69-0.32c-0.22-0.21-0.32-0.47-0.32-0.77
			c0-0.21,0.09-0.4,0.28-0.57c-0.06-0.89-0.22-1.77-0.49-2.63c-0.27-0.86-0.67-1.63-1.21-2.29c-0.54-0.66-1.22-1.2-2.04-1.62
			c-0.82-0.42-1.81-0.63-2.97-0.63c-1.29,0-2.39,0.23-3.3,0.69c-0.9,0.46-1.63,1.06-2.19,1.8c-0.55,0.74-0.95,1.6-1.19,2.57
			c-0.24,0.97-0.36,1.97-0.36,2.99c0.03,1.59,0.22,2.89,0.57,3.88c0.35,1,0.98,1.89,1.9,2.67L75.41,99.72z"/>
		<path class="st1" d="M97.83,99.72c0.7,0.65,1.28,1.31,1.74,1.98c0.46,0.68,0.81,1.36,1.07,2.06c0.26,0.7,0.43,1.4,0.53,2.1
			c0.09,0.7,0.14,1.39,0.14,2.06c0,1.4-0.14,2.72-0.43,3.96c-0.28,1.24-0.77,2.32-1.46,3.24c-0.69,0.92-1.61,1.64-2.77,2.16
			c-1.16,0.53-2.62,0.79-4.37,0.79c-1.67,0-3.08-0.26-4.21-0.77c-1.13-0.51-2.06-1.19-2.77-2.04c-0.72-0.85-1.25-1.83-1.6-2.93
			c-0.35-1.11-0.55-2.25-0.61-3.44c-0.08-0.08-0.14-0.19-0.18-0.32c-0.04-0.13-0.06-0.27-0.06-0.4c0-0.3,0.1-0.55,0.3-0.77
			c0.2-0.22,0.45-0.32,0.75-0.32s0.55,0.11,0.77,0.32s0.32,0.47,0.32,0.77c0,0.11-0.05,0.27-0.16,0.49
			c0.03,0.97,0.18,1.93,0.47,2.87c0.28,0.94,0.71,1.79,1.29,2.53s1.34,1.34,2.27,1.8c0.93,0.46,2.07,0.69,3.42,0.69
			c1.56,0,2.83-0.25,3.8-0.75c0.97-0.5,1.73-1.16,2.27-1.98c0.54-0.82,0.9-1.75,1.07-2.77c0.17-1.03,0.26-2.06,0.26-3.12
			c0-1.38-0.25-2.67-0.75-3.86c-0.5-1.2-1.25-2.27-2.25-3.22l-9.39-8.42c-0.65-0.59-1.17-1.18-1.56-1.76
			c-0.39-0.58-0.69-1.19-0.91-1.82c-0.22-0.63-0.36-1.29-0.44-1.96c-0.08-0.68-0.12-1.4-0.12-2.19c0-1.27,0.15-2.48,0.44-3.64
			c0.3-1.16,0.79-2.18,1.48-3.08c0.69-0.89,1.58-1.6,2.69-2.14c1.11-0.54,2.47-0.81,4.09-0.81c1.46,0,2.7,0.24,3.72,0.73
			c1.02,0.49,1.86,1.13,2.51,1.94c0.65,0.81,1.13,1.73,1.46,2.77c0.32,1.04,0.51,2.12,0.57,3.26c0.19,0.16,0.28,0.38,0.28,0.65
			c0,0.3-0.11,0.55-0.32,0.77c-0.22,0.22-0.47,0.32-0.77,0.32c-0.24,0-0.47-0.11-0.69-0.32c-0.22-0.21-0.32-0.47-0.32-0.77
			c0-0.21,0.09-0.4,0.28-0.57c-0.06-0.89-0.22-1.77-0.49-2.63c-0.27-0.86-0.67-1.63-1.21-2.29c-0.54-0.66-1.22-1.2-2.04-1.62
			c-0.82-0.42-1.81-0.63-2.97-0.63c-1.29,0-2.39,0.23-3.3,0.69c-0.9,0.46-1.63,1.06-2.19,1.8c-0.55,0.74-0.95,1.6-1.19,2.57
			c-0.24,0.97-0.36,1.97-0.36,2.99c0.03,1.59,0.22,2.89,0.57,3.88c0.35,1,0.98,1.89,1.9,2.67L97.83,99.72z"/>
		<path class="st1" d="M123.25,94.01h-15.42v14.57c0,0.97,0.12,1.93,0.34,2.87c0.23,0.94,0.61,1.79,1.13,2.53
			c0.53,0.74,1.23,1.34,2.12,1.8c0.89,0.46,1.98,0.69,3.28,0.69c1.27,0,2.33-0.2,3.2-0.61c0.86-0.41,1.56-0.94,2.08-1.6
			c0.53-0.66,0.91-1.42,1.15-2.29s0.39-1.75,0.44-2.67c-0.08-0.08-0.15-0.19-0.2-0.32c-0.05-0.14-0.08-0.24-0.08-0.32
			c0-0.3,0.11-0.55,0.32-0.77c0.22-0.22,0.47-0.32,0.77-0.32s0.55,0.11,0.77,0.32c0.22,0.22,0.32,0.47,0.32,0.77
			c0,0.08-0.02,0.19-0.06,0.32c-0.04,0.13-0.1,0.24-0.18,0.32c-0.08,1.13-0.28,2.23-0.59,3.28c-0.31,1.05-0.79,1.98-1.44,2.79
			c-0.65,0.81-1.5,1.46-2.57,1.96s-2.38,0.75-3.94,0.75c-1.62,0-2.97-0.28-4.07-0.83c-1.09-0.55-1.97-1.27-2.63-2.16
			c-0.66-0.89-1.13-1.9-1.42-3.03c-0.28-1.13-0.43-2.29-0.43-3.48V84.55c0-1.19,0.14-2.35,0.43-3.48c0.28-1.13,0.75-2.14,1.42-3.03
			c0.66-0.89,1.54-1.61,2.63-2.17c1.09-0.55,2.45-0.83,4.07-0.83c1.62,0,2.97,0.28,4.05,0.83c1.08,0.55,1.96,1.27,2.63,2.17
			c0.67,0.89,1.15,1.9,1.44,3.03c0.28,1.13,0.42,2.29,0.42,3.48V94.01z M121.59,92.35v-7.81c0-0.94-0.11-1.89-0.32-2.83
			c-0.22-0.94-0.59-1.79-1.11-2.53c-0.53-0.74-1.23-1.35-2.12-1.82c-0.89-0.47-2-0.71-3.32-0.71c-1.29,0-2.39,0.24-3.28,0.71
			c-0.89,0.47-1.6,1.08-2.12,1.82c-0.53,0.74-0.9,1.58-1.13,2.53c-0.23,0.94-0.34,1.89-0.34,2.83v7.81H121.59z"/>
		<path class="st1" d="M128.3,84.55c0-1.19,0.13-2.35,0.4-3.48c0.27-1.13,0.74-2.14,1.4-3.03c0.66-0.89,1.54-1.61,2.63-2.17
			c1.09-0.55,2.46-0.83,4.11-0.83c1.67,0,3.05,0.32,4.13,0.95c1.08,0.63,2,1.6,2.75,2.89V60.27c-0.16-0.24-0.24-0.49-0.24-0.73
			c0-0.3,0.11-0.55,0.32-0.77c0.22-0.22,0.47-0.32,0.77-0.32c0.3,0,0.55,0.11,0.75,0.32c0.2,0.22,0.3,0.47,0.3,0.77
			c0,0.24-0.08,0.49-0.24,0.73v56.08c0.16,0.22,0.24,0.44,0.24,0.69c0,0.3-0.1,0.55-0.3,0.75c-0.2,0.2-0.45,0.3-0.75,0.3
			c-0.3,0-0.55-0.1-0.77-0.3c-0.22-0.2-0.32-0.45-0.32-0.75c0-0.24,0.08-0.47,0.24-0.69v-1.74c-0.76,1.05-1.67,1.89-2.75,2.53
			c-1.08,0.63-2.46,0.95-4.13,0.95c-1.65,0-3.02-0.28-4.11-0.83c-1.09-0.55-1.97-1.27-2.63-2.16c-0.66-0.89-1.13-1.9-1.4-3.03
			c-0.27-1.13-0.4-2.29-0.4-3.48V84.55z M143.72,84.55c0-0.94-0.14-1.89-0.42-2.83c-0.28-0.94-0.71-1.79-1.27-2.53
			c-0.57-0.74-1.28-1.35-2.15-1.82c-0.86-0.47-1.88-0.71-3.03-0.71c-1.35,0-2.46,0.24-3.34,0.71c-0.88,0.47-1.58,1.08-2.1,1.82
			s-0.9,1.58-1.11,2.53c-0.22,0.94-0.32,1.89-0.32,2.83v24.04c0,0.94,0.11,1.89,0.32,2.83c0.22,0.94,0.59,1.79,1.11,2.55
			c0.53,0.76,1.23,1.36,2.1,1.82c0.88,0.46,1.99,0.69,3.34,0.69c1.29,0,2.38-0.24,3.26-0.73c0.88-0.49,1.58-1.11,2.12-1.86
			c0.54-0.75,0.92-1.6,1.15-2.53c0.23-0.93,0.34-1.85,0.34-2.77V84.55z"/>
		<path class="st1" d="M167.64,65.89c0.16,0.16,0.24,0.38,0.24,0.65c0,0.3-0.1,0.55-0.3,0.77c-0.2,0.22-0.45,0.32-0.75,0.32
			c-0.3,0-0.55-0.11-0.77-0.32c-0.22-0.22-0.32-0.47-0.32-0.77c0-0.27,0.08-0.49,0.24-0.65V63.5c-0.16-0.27-0.24-0.53-0.24-0.77
			c0-0.3,0.11-0.55,0.32-0.75c0.22-0.2,0.47-0.3,0.77-0.3c0.3,0,0.55,0.1,0.75,0.3c0.2,0.2,0.3,0.45,0.3,0.75
			c0,0.24-0.08,0.5-0.24,0.77V65.89z M167.64,116.35c0.16,0.22,0.24,0.44,0.24,0.69c0,0.3-0.1,0.55-0.3,0.75
			c-0.2,0.2-0.45,0.3-0.75,0.3c-0.3,0-0.55-0.1-0.77-0.3c-0.22-0.2-0.32-0.45-0.32-0.75c0-0.24,0.08-0.47,0.24-0.69V76.86
			c-0.16-0.27-0.24-0.53-0.24-0.77c0-0.3,0.11-0.55,0.32-0.75c0.22-0.2,0.47-0.3,0.77-0.3c0.3,0,0.55,0.1,0.75,0.3
			c0.2,0.2,0.3,0.45,0.3,0.75c0,0.24-0.08,0.5-0.24,0.77V116.35z"/>
		<path class="st1" d="M190.53,116.35c0.16,0.22,0.24,0.44,0.24,0.69c0,0.3-0.11,0.55-0.32,0.75c-0.22,0.2-0.47,0.3-0.77,0.3
			c-0.3,0-0.55-0.1-0.75-0.3c-0.2-0.2-0.3-0.45-0.3-0.75c0-0.24,0.08-0.47,0.24-0.69v-31.8c0-0.94-0.11-1.89-0.32-2.83
			c-0.22-0.94-0.59-1.79-1.11-2.53s-1.23-1.35-2.1-1.82c-0.88-0.47-1.99-0.71-3.34-0.71c-1.16,0-2.17,0.24-3.04,0.71
			c-0.86,0.47-1.58,1.08-2.14,1.82c-0.57,0.74-0.99,1.58-1.27,2.53s-0.43,1.89-0.43,2.83v31.8c0.16,0.22,0.24,0.44,0.24,0.69
			c0,0.3-0.11,0.55-0.32,0.75c-0.22,0.2-0.47,0.3-0.77,0.3c-0.3,0-0.55-0.1-0.75-0.3c-0.2-0.2-0.3-0.45-0.3-0.75
			c0-0.24,0.08-0.47,0.24-0.69V76.86c-0.16-0.27-0.24-0.53-0.24-0.77c0-0.3,0.1-0.55,0.3-0.75c0.2-0.2,0.45-0.3,0.75-0.3
			c0.3,0,0.55,0.1,0.77,0.3c0.22,0.2,0.32,0.45,0.32,0.75c0,0.24-0.08,0.5-0.24,0.77v2.06c0.76-1.32,1.67-2.3,2.75-2.93
			c1.08-0.63,2.45-0.95,4.13-0.95c1.64,0,3.01,0.28,4.11,0.83c1.09,0.55,1.97,1.27,2.63,2.17c0.66,0.89,1.13,1.9,1.4,3.03
			c0.27,1.13,0.4,2.29,0.4,3.48V116.35z"/>
		<path class="st1" d="M227.07,116.35c0.19,0.24,0.28,0.47,0.28,0.69c0,0.3-0.11,0.55-0.32,0.75c-0.22,0.2-0.47,0.3-0.77,0.3
			c-0.3,0-0.55-0.1-0.77-0.3c-0.22-0.2-0.32-0.45-0.32-0.75c0-0.24,0.08-0.47,0.24-0.69v-1.74c-0.73,1.05-1.64,1.89-2.73,2.53
			c-1.09,0.63-2.47,0.95-4.15,0.95c-1.62,0-2.97-0.28-4.07-0.83c-1.09-0.55-1.97-1.27-2.63-2.16c-0.66-0.89-1.13-1.9-1.42-3.03
			c-0.28-1.13-0.43-2.29-0.43-3.48v-6.72c0-1.19,0.13-2.35,0.38-3.48c0.26-1.13,0.76-2.15,1.5-3.03c0.74-0.89,1.81-1.61,3.2-2.17
			c1.39-0.55,3.22-0.83,5.48-0.83h4.86v-7.81c0-0.94-0.12-1.89-0.34-2.83c-0.23-0.94-0.61-1.79-1.13-2.53s-1.23-1.35-2.12-1.82
			c-0.89-0.47-1.98-0.71-3.28-0.71c-1.24,0-2.29,0.21-3.16,0.63c-0.86,0.42-1.57,0.96-2.12,1.62c-0.55,0.66-0.96,1.42-1.23,2.29
			c-0.27,0.86-0.42,1.74-0.44,2.63c0.19,0.19,0.28,0.41,0.28,0.65c0,0.24-0.11,0.47-0.32,0.69c-0.22,0.22-0.47,0.32-0.77,0.32
			s-0.55-0.11-0.77-0.32c-0.22-0.21-0.32-0.44-0.32-0.69c0-0.13,0.02-0.27,0.06-0.4c0.04-0.13,0.1-0.24,0.18-0.32
			c0.08-1.13,0.28-2.22,0.61-3.26c0.32-1.04,0.83-1.96,1.52-2.77c0.69-0.81,1.56-1.46,2.61-1.94s2.35-0.73,3.88-0.73
			c1.62,0,2.97,0.28,4.07,0.83c1.09,0.55,1.97,1.27,2.63,2.17c0.66,0.89,1.13,1.9,1.42,3.03c0.28,1.13,0.42,2.29,0.42,3.48V116.35z
			 M211.66,108.58c0,0.94,0.11,1.89,0.32,2.83c0.22,0.94,0.59,1.79,1.11,2.55c0.53,0.76,1.23,1.36,2.1,1.82
			c0.88,0.46,1.99,0.69,3.34,0.69c1.29,0,2.37-0.21,3.24-0.63c0.86-0.42,1.56-0.97,2.08-1.66c0.53-0.69,0.9-1.47,1.13-2.35
			c0.23-0.87,0.37-1.77,0.43-2.69V94.01h-4.86c-1.94,0-3.5,0.23-4.67,0.69c-1.17,0.46-2.08,1.06-2.71,1.8s-1.05,1.58-1.23,2.53
			c-0.19,0.94-0.28,1.89-0.28,2.83V108.58z"/>
		<path class="st1" d="M264.79,107.85c0,1.19-0.14,2.34-0.43,3.46c-0.28,1.12-0.76,2.12-1.42,3.02c-0.66,0.89-1.55,1.6-2.67,2.14
			c-1.12,0.54-2.52,0.81-4.19,0.81h-8.54V59.25h8.54c1.67,0,3.07,0.27,4.19,0.81c1.12,0.54,2.01,1.25,2.67,2.15
			c0.66,0.89,1.13,1.9,1.42,3.03c0.28,1.13,0.43,2.29,0.43,3.48V107.85z M256.09,115.62c1.38,0,2.51-0.23,3.42-0.69
			c0.9-0.46,1.63-1.05,2.16-1.78c0.54-0.73,0.92-1.56,1.13-2.49c0.22-0.93,0.32-1.87,0.32-2.81V68.72c0-0.94-0.11-1.88-0.32-2.81
			c-0.22-0.93-0.59-1.77-1.13-2.51s-1.26-1.34-2.16-1.8c-0.9-0.46-2.04-0.69-3.42-0.69h-6.88v54.71H256.09z"/>
		<path class="st1" d="M272.25,116.35c0.16,0.22,0.24,0.44,0.24,0.69c0,0.3-0.11,0.55-0.32,0.75c-0.22,0.2-0.47,0.3-0.77,0.3
			c-0.3,0-0.55-0.1-0.75-0.3c-0.2-0.2-0.3-0.45-0.3-0.75c0-0.24,0.08-0.47,0.24-0.69V76.86c-0.16-0.27-0.24-0.53-0.24-0.77
			c0-0.3,0.1-0.55,0.3-0.75c0.2-0.2,0.45-0.3,0.75-0.3c0.3,0,0.55,0.1,0.77,0.3c0.22,0.2,0.32,0.45,0.32,0.75
			c0,0.24-0.08,0.5-0.24,0.77v2.87c0.76-1.29,1.67-2.27,2.75-2.91c1.08-0.65,2.45-0.97,4.13-0.97h1.42
			c0.24-0.16,0.49-0.24,0.73-0.24c0.3,0,0.55,0.1,0.77,0.3c0.22,0.2,0.32,0.45,0.32,0.75c0,0.3-0.11,0.55-0.32,0.77
			c-0.22,0.22-0.47,0.32-0.77,0.32c-0.24,0-0.49-0.08-0.73-0.24h-1.42c-1.16,0-2.17,0.23-3.04,0.69c-0.86,0.46-1.58,1.07-2.14,1.82
			c-0.57,0.76-0.99,1.6-1.27,2.53c-0.28,0.93-0.43,1.88-0.43,2.85V116.35z"/>
		<path class="st1" d="M302.65,94.01h-15.42v14.57c0,0.97,0.12,1.93,0.34,2.87c0.23,0.94,0.61,1.79,1.13,2.53
			c0.53,0.74,1.23,1.34,2.12,1.8c0.89,0.46,1.98,0.69,3.28,0.69c1.27,0,2.33-0.2,3.2-0.61c0.86-0.41,1.56-0.94,2.08-1.6
			s0.91-1.42,1.15-2.29s0.39-1.75,0.44-2.67c-0.08-0.08-0.15-0.19-0.2-0.32c-0.05-0.14-0.08-0.24-0.08-0.32
			c0-0.3,0.11-0.55,0.32-0.77c0.22-0.22,0.47-0.32,0.77-0.32s0.55,0.11,0.77,0.32c0.22,0.22,0.32,0.47,0.32,0.77
			c0,0.08-0.02,0.19-0.06,0.32c-0.04,0.13-0.1,0.24-0.18,0.32c-0.08,1.13-0.28,2.23-0.59,3.28c-0.31,1.05-0.79,1.98-1.44,2.79
			c-0.65,0.81-1.5,1.46-2.57,1.96c-1.07,0.5-2.38,0.75-3.95,0.75c-1.62,0-2.97-0.28-4.07-0.83c-1.09-0.55-1.97-1.27-2.63-2.16
			c-0.66-0.89-1.13-1.9-1.42-3.03c-0.28-1.13-0.43-2.29-0.43-3.48V84.55c0-1.19,0.14-2.35,0.43-3.48c0.28-1.13,0.75-2.14,1.42-3.03
			c0.66-0.89,1.54-1.61,2.63-2.17c1.09-0.55,2.45-0.83,4.07-0.83c1.62,0,2.97,0.28,4.05,0.83c1.08,0.55,1.96,1.27,2.63,2.17
			c0.67,0.89,1.15,1.9,1.44,3.03c0.28,1.13,0.42,2.29,0.42,3.48V94.01z M300.99,92.35v-7.81c0-0.94-0.11-1.89-0.32-2.83
			c-0.22-0.94-0.59-1.79-1.11-2.53c-0.53-0.74-1.23-1.35-2.12-1.82c-0.89-0.47-2-0.71-3.32-0.71c-1.29,0-2.39,0.24-3.28,0.71
			c-0.89,0.47-1.6,1.08-2.12,1.82c-0.53,0.74-0.9,1.58-1.13,2.53c-0.23,0.94-0.34,1.89-0.34,2.83v7.81H300.99z"/>
		<path class="st1" d="M321.93,99.72c0.7,0.65,1.28,1.31,1.74,1.98c0.46,0.68,0.81,1.36,1.07,2.06c0.26,0.7,0.43,1.4,0.53,2.1
			c0.09,0.7,0.14,1.39,0.14,2.06c0,1.4-0.14,2.72-0.43,3.96c-0.28,1.24-0.77,2.32-1.46,3.24c-0.69,0.92-1.61,1.64-2.77,2.16
			c-1.16,0.53-2.62,0.79-4.37,0.79c-1.67,0-3.08-0.26-4.21-0.77c-1.13-0.51-2.06-1.19-2.77-2.04c-0.72-0.85-1.25-1.83-1.6-2.93
			c-0.35-1.11-0.55-2.25-0.61-3.44c-0.08-0.08-0.14-0.19-0.18-0.32c-0.04-0.13-0.06-0.27-0.06-0.4c0-0.3,0.1-0.55,0.3-0.77
			c0.2-0.22,0.45-0.32,0.75-0.32s0.55,0.11,0.77,0.32c0.22,0.22,0.32,0.47,0.32,0.77c0,0.11-0.05,0.27-0.16,0.49
			c0.03,0.97,0.18,1.93,0.47,2.87c0.28,0.94,0.71,1.79,1.29,2.53c0.58,0.74,1.34,1.34,2.27,1.8s2.07,0.69,3.42,0.69
			c1.56,0,2.83-0.25,3.8-0.75c0.97-0.5,1.73-1.16,2.27-1.98c0.54-0.82,0.9-1.75,1.07-2.77c0.17-1.03,0.26-2.06,0.26-3.12
			c0-1.38-0.25-2.67-0.75-3.86c-0.5-1.2-1.25-2.27-2.25-3.22l-9.39-8.42c-0.65-0.59-1.17-1.18-1.56-1.76
			c-0.39-0.58-0.69-1.19-0.91-1.82c-0.22-0.63-0.36-1.29-0.44-1.96c-0.08-0.68-0.12-1.4-0.12-2.19c0-1.27,0.15-2.48,0.44-3.64
			c0.3-1.16,0.79-2.18,1.48-3.08c0.69-0.89,1.58-1.6,2.69-2.14c1.11-0.54,2.47-0.81,4.09-0.81c1.46,0,2.7,0.24,3.72,0.73
			c1.02,0.49,1.86,1.13,2.51,1.94c0.65,0.81,1.13,1.73,1.46,2.77c0.32,1.04,0.51,2.12,0.57,3.26c0.19,0.16,0.28,0.38,0.28,0.65
			c0,0.3-0.11,0.55-0.32,0.77c-0.22,0.22-0.47,0.32-0.77,0.32c-0.24,0-0.47-0.11-0.69-0.32c-0.22-0.21-0.32-0.47-0.32-0.77
			c0-0.21,0.09-0.4,0.28-0.57c-0.06-0.89-0.22-1.77-0.49-2.63c-0.27-0.86-0.67-1.63-1.21-2.29c-0.54-0.66-1.22-1.2-2.04-1.62
			c-0.82-0.42-1.81-0.63-2.97-0.63c-1.29,0-2.39,0.23-3.3,0.69c-0.9,0.46-1.63,1.06-2.19,1.8c-0.55,0.74-0.95,1.6-1.19,2.57
			c-0.24,0.97-0.36,1.97-0.36,2.99c0.03,1.59,0.22,2.89,0.57,3.88c0.35,1,0.98,1.89,1.9,2.67L321.93,99.72z"/>
		<path class="st1" d="M344.35,99.72c0.7,0.65,1.28,1.31,1.74,1.98c0.46,0.68,0.81,1.36,1.07,2.06c0.26,0.7,0.43,1.4,0.53,2.1
			c0.09,0.7,0.14,1.39,0.14,2.06c0,1.4-0.14,2.72-0.43,3.96c-0.28,1.24-0.77,2.32-1.46,3.24c-0.69,0.92-1.61,1.64-2.77,2.16
			c-1.16,0.53-2.62,0.79-4.37,0.79c-1.67,0-3.08-0.26-4.21-0.77c-1.13-0.51-2.06-1.19-2.77-2.04c-0.72-0.85-1.25-1.83-1.6-2.93
			c-0.35-1.11-0.55-2.25-0.61-3.44c-0.08-0.08-0.14-0.19-0.18-0.32c-0.04-0.13-0.06-0.27-0.06-0.4c0-0.3,0.1-0.55,0.3-0.77
			c0.2-0.22,0.45-0.32,0.75-0.32s0.55,0.11,0.77,0.32c0.22,0.22,0.32,0.47,0.32,0.77c0,0.11-0.05,0.27-0.16,0.49
			c0.03,0.97,0.18,1.93,0.47,2.87c0.28,0.94,0.71,1.79,1.29,2.53c0.58,0.74,1.34,1.34,2.27,1.8s2.07,0.69,3.42,0.69
			c1.56,0,2.83-0.25,3.8-0.75c0.97-0.5,1.73-1.16,2.27-1.98c0.54-0.82,0.9-1.75,1.07-2.77c0.17-1.03,0.26-2.06,0.26-3.12
			c0-1.38-0.25-2.67-0.75-3.86c-0.5-1.2-1.25-2.27-2.25-3.22l-9.39-8.42c-0.65-0.59-1.17-1.18-1.56-1.76
			c-0.39-0.58-0.69-1.19-0.91-1.82c-0.22-0.63-0.36-1.29-0.44-1.96c-0.08-0.68-0.12-1.4-0.12-2.19c0-1.27,0.15-2.48,0.44-3.64
			c0.3-1.16,0.79-2.18,1.48-3.08c0.69-0.89,1.58-1.6,2.69-2.14c1.11-0.54,2.47-0.81,4.09-0.81c1.46,0,2.7,0.24,3.72,0.73
			c1.02,0.49,1.86,1.13,2.51,1.94c0.65,0.81,1.13,1.73,1.46,2.77c0.32,1.04,0.51,2.12,0.57,3.26c0.19,0.16,0.28,0.38,0.28,0.65
			c0,0.3-0.11,0.55-0.32,0.77c-0.22,0.22-0.47,0.32-0.77,0.32c-0.24,0-0.47-0.11-0.69-0.32c-0.22-0.21-0.32-0.47-0.32-0.77
			c0-0.21,0.09-0.4,0.28-0.57c-0.06-0.89-0.22-1.77-0.49-2.63c-0.27-0.86-0.67-1.63-1.21-2.29c-0.54-0.66-1.22-1.2-2.04-1.62
			c-0.82-0.42-1.81-0.63-2.97-0.63c-1.29,0-2.39,0.23-3.3,0.69c-0.9,0.46-1.63,1.06-2.19,1.8c-0.55,0.74-0.95,1.6-1.19,2.57
			c-0.24,0.97-0.36,1.97-0.36,2.99c0.03,1.59,0.22,2.89,0.57,3.88c0.35,1,0.98,1.89,1.9,2.67L344.35,99.72z"/>
	</g>
	<g>
		<path d="M152.77,21.87c-0.12,0-0.29-0.04-0.29,0.17h-0.04c-0.08,0-0.21,0-0.25,0.04c-0.17,0.04-0.37,0.21-0.58,0.21
			c-0.46,0.08-0.66,0.29-0.83,0.66l0.12,0.08c-0.04,0-0.04,0-0.12,0.08v-0.17c-0.08,0-0.25,0-0.29,0.17h0.29
			c-0.04,0.21-0.21,0.29-0.46,0.29c0,0.17-0.17,0.12-0.29,0.12c0-0.17,0.17-0.12,0.29-0.17c0.04-0.04,0.08-0.17,0.17-0.25
			c-0.29,0-0.5,0.12-0.7,0.29v0.08c0.04,0,0.04,0.04,0.08,0.04h0.17c-0.08,0.08-0.17,0.21-0.25,0.25c-0.12,0.12-0.21-0.04-0.33-0.04
			c-0.08-0.04-0.17,0-0.21,0.12c0.04,0.04,0.17,0.08,0.17,0.12c0,0.08-0.12,0.12-0.17,0.17h-0.12c0-0.08,0.08-0.21,0.12-0.29
			c-0.17,0-0.25,0.04-0.37,0.12c0,0.08,0,0.08-0.04,0.08c0.04,0.04,0.08,0.04,0.17,0.04c0.04,0.04,0.08,0.04,0.12,0.04
			c-0.04,0.08-0.08,0.17-0.21,0.21c-0.08,0.12-0.29,0.25-0.45,0.33c-0.12,0.12-0.21,0.04-0.29-0.17v-0.04
			c-0.17,0.04-0.37,0.12-0.41,0.25c0.04,0,0.12,0.08,0.21,0.08l0.04,0.04c-0.12,0.17-0.25,0.41-0.58,0.37l0.17-0.25
			c0.04-0.08,0.12-0.12,0.17-0.25c-0.37,0.08-0.41,0.12-0.5,0.5h0.17c-0.04,0.04-0.04,0.04-0.04,0.12
			c-0.04-0.08-0.04-0.08-0.12-0.12h-0.21c-0.04,0.04-0.04,0.17-0.04,0.21c-0.04,0.17,0,0.29,0.04,0.42l0.46,0.83
			c0.29,0.66,0.58,1.37,0.79,2.11c0.08,0.41,0.17,0.87,0.37,1.28v0.91c0,0.21-0.04,0.41,0,0.58c0.08,0.21,0,0.41,0.08,0.62
			c-0.08,0.12,0.08,0.25,0,0.33c0,0.17-0.04,0.29-0.08,0.37c-0.17,0.41-0.29,0.91-0.41,1.33h0.04c0.04,0,0.21,0,0.17,0.17
			c-0.17,0.33-0.21,0.66-0.37,0.95c-0.21,0.33-0.33,0.7-0.58,1.04c-0.25,0.25-0.37,0.58-0.66,0.79c-0.17,0.17-0.25,0.37-0.37,0.54
			l-0.21,0.21c-0.12,0.12-0.21,0.12-0.25,0.17c-0.12,0.08,0.08,0.17,0,0.25l-0.37,0.33c-0.25,0.17-0.46,0.25-0.66,0.41
			c-0.25,0.21-0.41,0.37-0.75,0.37c-0.17,0-0.33,0.12-0.46,0.29c-0.33,0.29-0.7,0.58-1.2,0.62c-0.29,0.04-0.58,0.29-0.83,0.37
			c-0.21,0.17-0.66,0.33-0.87,0.37c-0.17,0-0.33,0-0.37,0.04c-0.41,0.33-0.91,0.17-1.33,0.37c-0.04,0.08-0.17,0-0.21,0
			c-0.29,0.12-0.41-0.12-0.7-0.04c-0.21,0.12-0.54,0.04-0.75,0.12c-0.46,0-0.83-0.17-1.28-0.21c-0.41-0.08-0.79-0.33-1.16-0.54
			c-0.58-0.46-0.87-0.83-1.24-1.49c-0.21-0.29-0.12-0.66-0.29-0.91c-0.08-0.12,0-0.29-0.08-0.37c-0.21-0.54,0-1.04,0.33-1.41
			c0.04-0.08,0.12-0.12,0.21-0.25c0.12-0.04,0.12-0.17,0-0.25c0-0.08,0-0.12,0.08-0.17c0.08-0.29,0.21-0.5,0.37-0.75
			c0-0.08,0.08-0.08,0.12-0.12c0,0.12,0,0.21-0.04,0.29c0,0.04-0.04,0.08-0.04,0.12c0,0.08,0.04,0.12,0.08,0.17
			c0,0,0.12,0,0.12-0.04c0.17-0.37,0.5-0.58,0.62-0.91c0.12-0.17,0.29-0.25,0.37-0.46c0.12-0.25,0.33-0.37,0.5-0.62
			c0.12-0.25,0.33-0.46,0.5-0.66c0.04-0.08,0.12-0.12,0.21-0.17c0.04-0.04,0.04-0.17,0.17-0.17v0.17c0.08,0,0.12-0.04,0.12-0.17
			h-0.12c0-0.04,0.04-0.12,0.12-0.17c0-0.04,0.08-0.08,0.17-0.17v-0.21c0.29-0.25,0.54-0.58,0.83-0.91
			c0.04-0.04,0.12-0.04,0.25-0.04v0.12c0.04,0,0.04-0.08,0.12-0.08c-0.08,0-0.08-0.04-0.12-0.04c0.04-0.17,0.17-0.33,0.21-0.5
			c0.12-0.08,0.21-0.12,0.37-0.12c0.04-0.17,0.21-0.29,0.17-0.45h-0.21l-0.29,0.29c-0.21,0.21-0.41,0.37-0.58,0.58
			c-0.21,0.21-0.37,0.46-0.58,0.71c-0.37,0.41-0.75,0.74-1.08,1.2c-0.25,0.41-0.66,0.74-0.95,1.24c-0.08,0.21-0.29,0.41-0.58,0.54
			c0.04-0.08,0.04-0.17,0.12-0.29c0.08-0.21,0.29-0.41,0.46-0.62c0.37-0.58,0.83-1.12,1.28-1.62l0.87-0.95
			c0.25-0.37,0.62-0.62,0.95-1c0.62-0.7,1.45-1.28,2.11-1.95c0.5-0.46,1.08-0.83,1.62-1.2c0.25-0.21,0.46-0.46,0.7-0.58
			c0.79-0.62,1.62-1.2,2.44-1.82c0.08-0.04,0.17-0.17,0.04-0.33l-1.08-1.7c-0.41-0.58-0.83-1.16-1.28-1.74
			c-0.25-0.33-0.58-0.62-0.62-1.04c0-0.04-0.12-0.08-0.17-0.21c-0.25-0.33-0.58-0.62-0.83-1c-0.46-0.66-0.75-1.41-1.08-2.11
			c-0.12-0.12-0.17-0.37-0.21-0.58c-0.08-0.04-0.12-0.17-0.12-0.25c-0.04-0.21,0-0.5-0.17-0.66c0.17-0.21,0-0.41,0-0.62
			c0-0.33,0.17-1.28,0.29-1.53l0.25-0.66c0.12-0.25,0.17-0.46,0.29-0.66c0.08-0.25,0.25-0.46,0.46-0.66
			c0.17-0.17,0.21-0.37,0.5-0.54c0.21-0.17,0.29-0.41,0.54-0.62c0.29-0.33,0.62-0.66,0.95-0.95l0.66-0.58
			c1.08-0.87,2.24-1.66,3.48-2.24c0.25-0.17,0.58-0.29,0.87-0.37c0.46-0.25,1-0.46,1.49-0.66c0.37-0.17,0.66-0.33,1.12-0.33
			c0.12,0,0.29-0.08,0.46-0.12c0.29-0.12,0.54-0.17,0.79-0.25c0.33-0.37,0.83-0.12,1.2-0.37c0.04-0.04,0.17-0.04,0.21,0
			c0.33,0.17,0.62,0.12,0.99,0.12c0.08,0,0.12,0,0.12,0.04c0.33,0.21,0.7,0.08,1.08,0.21c0.66,0.29,1.33,0.62,1.74,1.2
			c0.37,0.46,0.79,0.95,0.99,1.53c0.17,0.37,0.29,0.79,0.29,1.24c0,0.21,0.08,0.46,0.04,0.75c-0.04,0.21,0,0.45,0.04,0.66
			c0,0.5-0.21,1.41-0.41,1.86c-0.08,0.33-0.21,0.66-0.25,0.95c-0.08,0.5-0.08,0.5-0.54,0.29c-0.41-0.17-0.58-0.54-0.87-0.87
			c0.08-0.29-0.25-0.58-0.04-0.95c0.04-0.08,0.04-0.25,0.04-0.41V7.29c0-0.46-0.08-0.83-0.25-1.2c-0.04-0.12-0.17-0.25-0.17-0.41
			c-0.12-0.41-0.41-0.62-0.79-0.7c-0.21-0.08-0.45-0.08-0.66-0.21c-0.08,0-0.21,0-0.25,0.12l-0.17,0.25
			c-0.17,0.17-0.33,0.29-0.54,0.21c-0.58-0.04-1.12,0.17-1.57,0.37c-0.66,0.29-1.28,0.45-1.95,0.66c-0.41,0.17-0.79,0.41-1.2,0.58
			c-0.46,0.12-0.75,0.41-1.2,0.54c-0.37,0.17-0.62,0.41-0.99,0.62c-0.25,0.21-0.58,0.45-0.95,0.58c-0.54,0.29-0.91,0.7-1.45,1
			c-0.08,0.29-0.37,0.45-0.62,0.62c-0.21,0.17-0.46,0.41-0.58,0.62c-0.46,0.45-0.87,0.87-1.24,1.37c-0.25,0.41-0.54,0.83-0.75,1.33
			c-0.17,0.41-0.25,0.91-0.33,1.37c0,0.21-0.17,0.54,0.08,0.74c-0.08,0.75,0.29,1.33,0.58,1.91c0.37,0.7,0.83,1.28,1.2,1.95
			l0.83,1.12c0.21,0.25,0.29,0.54,0.58,0.74c0.04,0.04,0.08,0.04,0.08,0.08c0.46,0.87,1.12,1.57,1.49,2.4
			c0.12,0.21,0.29,0.21,0.5,0.04l0.7-0.45l0.66-0.41h0.21c0.08-0.08,0.12-0.17,0.17-0.25c0.37-0.21,0.75-0.45,1.2-0.66
			c0.04-0.08,0.12,0,0.21,0c0,0.04-0.08,0.08-0.12,0.17l-0.75,0.46c-0.21,0.12-0.37,0.29-0.62,0.29l-0.17,0.12l-1.62,1.08
			c-0.08,0.04,0,0.12,0,0.17c0.08,0.04,0.17,0.12,0.21,0.12v0.12c0,0.08,0.08,0.12,0.08,0.12c0.21-0.12,0.45-0.12,0.54-0.37
			c-0.12,0-0.17,0-0.29,0.04c-0.08,0-0.21,0.08-0.33,0.08c0-0.08,0.08-0.12,0.12-0.17c0.17-0.17,0.37-0.29,0.58-0.46h0.21
			c-0.04,0.12-0.08,0.25-0.17,0.33c0.25,0,0.45-0.08,0.5-0.33h-0.33c0.33-0.37,0.75-0.62,1.24-0.74c-0.04,0.08-0.12,0.25-0.21,0.29
			c-0.29,0.08-0.5,0.25-0.7,0.45c0.17,0,0.33,0,0.5-0.08c0.04-0.12,0.12-0.21,0.25-0.17c0.21,0,0.37-0.17,0.5-0.33
			c0.08-0.08,0.21-0.21,0.41-0.21c0.04,0,0.08-0.04,0.17-0.08c0.21-0.29,0.58-0.33,0.79-0.54c0-0.08,0.12-0.12,0.17-0.12
			c0.33,0,0.41-0.21,0.58-0.41c-0.37,0-0.58,0.21-0.91,0.37c-0.08,0.04-0.21,0.08-0.33,0.04c0-0.08,0.12-0.21,0.25-0.25
			c0.25-0.12,0.5-0.21,0.79-0.37c0.04-0.08,0.08-0.17,0.21-0.29c-0.12,0-0.21,0-0.25,0.08c-0.37,0.12-0.7,0.29-1.04,0.45
			c-0.04,0.04-0.17,0.04-0.25,0.12c0-0.17,0.08-0.29,0.25-0.33c1.08-0.54,2.15-1.08,3.19-1.53c0.91-0.46,1.82-0.7,2.73-1.04
			c0.17-0.04,0.37-0.04,0.54-0.04c0.08,0.21,0.21,0.17,0.37,0.12h0.04c0-0.08-0.04-0.08-0.04-0.08c-0.12,0-0.21-0.04-0.37-0.04
			c0.17-0.21,0.46-0.17,0.62-0.25c0.33,0,0.58-0.17,0.91-0.17c0.33-0.08,0.7-0.08,1.08,0c0.54,0.04,1.04,0.08,1.57,0.37
			c0.17,0.08,0.33,0.21,0.37,0.41c0.12,0.17,0.21,0.33,0.29,0.5c0,0,0.04,0.08,0,0.08c-0.12,0.21-0.21,0.37-0.37,0.58h-0.17
			c-0.33-0.21-0.75-0.08-1.04-0.41c-0.08-0.12-0.25-0.12-0.41-0.21c-0.21-0.21-0.54-0.17-0.79-0.12c-0.21,0.12-0.41,0.17-0.7,0.21
			c-0.21,0-0.41,0.08-0.62,0.17c-0.21,0.08-0.5,0.17-0.7,0.21c-0.04,0.08-0.17,0.08-0.21,0.12c-0.41,0.21-0.91,0.21-1.33,0.5
			c-0.21,0-0.46,0.04-0.66,0.12v-0.08c0-0.12,0-0.17-0.08-0.12c-0.12,0.08-0.33,0.08-0.37,0.21c-0.21,0-0.37,0.12-0.54,0.25
			c-0.17,0.04-0.21,0.08-0.37,0.08c0-0.04,0-0.17-0.12-0.04c0.08,0,0.08,0,0.12,0.04V21.87h0.17c0.04,0,0.08,0.04,0.08,0.04V22
			c-0.21,0.21-0.41,0.29-0.66,0.29l0.12-0.25C152.61,22,152.73,22.04,152.77,21.87z M134.59,35.13c0-0.21,0.12-0.37,0.33-0.42
			C134.96,34.92,134.84,35.09,134.59,35.13z M146.44,25.97c-0.04-0.04-0.12-0.17-0.21-0.21h-0.12c0,0.04-0.04,0.08,0,0.17
			c0.04,0.04,0.12,0.17,0,0.25c-0.08,0.12-0.21,0.21-0.33,0.33c-0.08,0.08-0.21,0.08-0.29,0.08c-0.08,0.08-0.08,0.12-0.08,0.12
			c-0.12,0.04-0.25,0.12-0.41,0.17c-0.17,0.37-0.46,0.58-0.79,0.79c-0.33,0.29-0.7,0.5-1.03,0.75c-0.25,0.29-0.5,0.54-0.83,0.74
			c-0.58,0.37-1.08,0.91-1.62,1.33l-0.37,0.33c-0.46,0.33-0.83,0.75-1.2,1.24l-0.5,0.46l-0.21,0.17c-0.58,0.75-1.24,1.45-1.74,2.2
			c-0.46,0.54-0.83,1.12-1.2,1.7c-0.08,0.21-0.25,0.42-0.25,0.75c-0.21,0.17-0.04,0.54-0.37,0.62c-0.12,0.33-0.29,0.7-0.21,1.08
			c0,0.25,0.17,0.54,0.41,0.62c0.37,0.12,0.7,0.29,1.08,0.25c0.08,0,0.25,0,0.37,0.04c0.54,0.21,1.03,0.04,1.66,0.04
			c0.12,0.04,0.37,0,0.46,0.04c0.12,0.08,0.21,0.17,0.33,0.12c0.37-0.21,0.83-0.12,1.2-0.37c0.62-0.21,1.2-0.5,1.82-0.74l0.04,0.04
			c0.08,0,0.08,0.08,0,0.12c0,0.04-0.04,0.17-0.08,0.21c0.08,0.04,0.21,0,0.33-0.12l1.53-0.87l0.08-0.25
			c-0.08,0.08-0.21,0.08-0.25,0.12c-0.12,0.04-0.21,0.04-0.33,0.04v-0.04c0.33-0.25,0.7-0.58,1.12-0.7h0.08
			c0,0.12-0.08,0.21-0.12,0.33c0.04,0,0.17,0,0.21-0.04c0.21-0.21,0.54-0.45,0.7-0.75c-0.12,0-0.21-0.12-0.12-0.21
			c0.17-0.17,0.33-0.45,0.54-0.54c0-0.29,0.21-0.46,0.37-0.54c0.7-0.7,0.95-1.53,1.33-2.36c-0.04-0.25,0.17-0.45,0.17-0.75
			c0-0.25,0.04-0.54,0.12-0.79c0.08-0.25,0.04-0.54,0.04-0.79v-0.75c0-0.12,0-0.21-0.04-0.33c0-0.12-0.08-0.21-0.08-0.33
			c0.08-0.08-0.04-0.25-0.04-0.37c0-0.08,0-0.25-0.04-0.37c0-0.08-0.04-0.17-0.12-0.25c-0.04-0.12-0.04-0.29-0.08-0.37
			c-0.08-0.29-0.17-0.54-0.21-0.79C146.97,26.97,146.68,26.51,146.44,25.97z M136.25,40.55v-0.04l-0.04,0.04H136.25z M136.95,32.85
			c0,0.04,0,0.08,0.04,0.08c0,0,0.08-0.04,0.08-0.08H136.95z M137.16,40.68c-0.04,0-0.04,0.04,0,0.04V40.68z M137.2,32.56v0.12
			c0.12,0,0.17-0.04,0.17-0.12H137.2z M137.36,32.52c0.04,0,0.08,0,0.08-0.04c0,0-0.04-0.04-0.08-0.04V32.52z M139.19,40.39
			c-0.04,0-0.12-0.04-0.17-0.04c-0.21,0.04-0.41,0.12-0.62,0.12c-0.29,0.04-0.5,0.04-0.75,0.04c-0.08,0-0.08,0.12-0.12,0.17
			c0,0.04,0.12,0.08,0.17,0.08c0.25-0.12,0.54-0.12,0.87-0.12c0.21,0.04,0.37-0.12,0.58-0.17
			C139.15,40.47,139.15,40.39,139.19,40.39z M137.7,32.15l0.04,0.04v-0.04H137.7z M138.03,31.81c0,0.08,0,0.08,0.04,0.08
			c0.04-0.08,0-0.08,0-0.08H138.03z M138.23,31.61c0-0.04,0.04-0.08,0.04-0.08C138.23,31.52,138.11,31.52,138.23,31.61z
			 M138.28,31.44c0.12,0,0.17-0.04,0.17-0.08C138.32,31.36,138.28,31.4,138.28,31.44z M139.06,30.61c0,0,0,0.08,0.12,0.04
			C139.15,30.61,139.06,30.61,139.06,30.61z M143.83,26.47c0.25-0.33,0.62-0.54,0.99-0.83l0.91-0.62v-0.17c0-0.04-0.04-0.04-0.08,0
			c-0.66,0.41-1.28,0.91-1.95,1.33c-0.37,0.21-0.66,0.54-1.04,0.87l-0.46,0.29c-0.75,0.62-1.53,1.12-2.15,1.82
			c-0.25,0.21-0.37,0.42-0.66,0.54c-0.17,0.12-0.21,0.21-0.21,0.41c0.12-0.08,0.21-0.17,0.33-0.21c0.04-0.08,0.17-0.08,0.29-0.08
			c0,0.04,0,0.12,0.12,0.04c-0.04,0-0.04,0-0.12-0.04c0.17-0.33,0.46-0.54,0.7-0.75c0.04-0.08,0.12-0.08,0.21-0.08
			c0-0.25,0-0.25,0.33-0.25v0.08c0.04,0,0.04,0,0.12-0.04c-0.08,0-0.08-0.04-0.12-0.04c0.12-0.29,0.25-0.5,0.58-0.5v0.17
			c0.12,0,0.17-0.04,0.17-0.17h-0.17c0-0.08,0.04-0.08,0.17-0.17v0.17c0.12,0,0.25,0.08,0.33-0.17h-0.33
			c0.12-0.25,0.33-0.37,0.54-0.58h0.21c-0.04,0.12-0.04,0.21-0.12,0.29c0.25,0.04,0.37-0.08,0.46-0.29h-0.33
			c0.12-0.25,0.37-0.41,0.58-0.58c0.04-0.04,0.12-0.04,0.21-0.04c0.08-0.21,0.21-0.33,0.46-0.29c-0.08,0.12-0.12,0.17-0.12,0.29
			c0.21,0.04,0.37-0.04,0.41-0.29h-0.29C143.83,26.56,143.83,26.51,143.83,26.47z M139.6,40.27c0,0-0.04-0.08-0.08-0.08
			c-0.08,0-0.08,0.08-0.12,0.08c0.04,0.04,0.04,0.04,0.12,0.04C139.56,40.31,139.6,40.31,139.6,40.27z M139.39,40.55
			c0.04,0,0.12,0.08,0.17,0.08c0,0,0-0.08,0.04-0.08c-0.04,0-0.04-0.04-0.08-0.04C139.52,40.51,139.44,40.55,139.39,40.55z
			 M139.56,30.24l0.04-0.04h-0.04V30.24z M139.6,41.05v-0.04l-0.04,0.04H139.6z M140.26,40.1c-0.08,0-0.12-0.08-0.17-0.08
			c0,0-0.04,0.08-0.12,0.08c0.08,0.04,0.12,0.04,0.12,0.04C140.14,40.14,140.18,40.14,140.26,40.1z M140.35,29.58
			c0,0,0.08-0.04,0.08-0.08C140.35,29.54,140.26,29.5,140.35,29.58z M140.43,29.5c0.08,0,0.12-0.04,0.12-0.17
			C140.47,29.37,140.47,29.37,140.43,29.5z M140.72,39.89c-0.04,0-0.17,0-0.21,0.04h-0.04c0,0.04,0,0.04,0.04,0.04
			C140.64,40.02,140.68,39.98,140.72,39.89z M140.55,29.33c0.12,0,0.17-0.04,0.17-0.12C140.64,29.21,140.55,29.29,140.55,29.33z
			 M140.72,29.16c0.12,0,0.17-0.04,0.17-0.08h-0.17V29.16z M141.47,39.56h-0.21c-0.21,0.04-0.41,0.08-0.54,0.33
			C141.05,39.89,141.3,39.81,141.47,39.56z M141.01,11.68l-0.08-0.04c0,0.04,0,0.04-0.04,0.04c0,0.08,0.04,0.08,0.04,0.08
			S141.01,11.77,141.01,11.68z M140.89,29c0.12,0,0.12-0.04,0.17-0.08C140.93,28.92,140.89,28.96,140.89,29z M141.3,40.55
			c-0.04,0-0.04-0.04-0.04-0.04h-0.17c0,0.04,0.08,0.04,0.08,0.12C141.22,40.55,141.26,40.55,141.3,40.55z M141.26,11.27l0.04-0.04
			C141.26,11.23,141.22,11.23,141.26,11.27z M141.38,11.19c0.04,0,0.08-0.08,0.08-0.12C141.42,11.06,141.38,11.1,141.38,11.19z
			 M141.42,28.71c0-0.08,0.04-0.08,0.04-0.12C141.42,28.58,141.38,28.58,141.42,28.71z M141.96,39.4c-0.12,0-0.21,0.04-0.29,0.04
			c-0.08-0.04-0.12,0-0.21,0.12h0.29C141.84,39.56,141.92,39.52,141.96,39.4z M141.59,10.9c-0.04,0-0.04,0.04-0.08,0.08L141.59,10.9
			z M141.55,28.58c0.04-0.04,0.08-0.04,0.08-0.17C141.59,28.46,141.55,28.54,141.55,28.58z M141.67,10.85l0.08-0.04l-0.08-0.08
			V10.85z M141.67,29.21v0.08h0.08L141.67,29.21z M142.13,28.09c0.04,0,0.08-0.04,0.08-0.08C142.17,28,142.13,28.05,142.13,28.09z
			 M142.17,10.19c0.04,0,0.04-0.04,0.04-0.04C142.17,10.15,142.13,10.15,142.17,10.19z M142.29,10.11c0.04,0,0.08,0,0.04-0.12
			C142.34,10.07,142.29,10.07,142.29,10.11z M142.29,27.96c0.04,0,0.08-0.08,0.08-0.12C142.34,27.84,142.29,27.88,142.29,27.96z
			 M142.38,40.1h-0.04v0.04L142.38,40.1z M142.71,39.93h-0.04l-0.08,0.04L142.71,39.93z M142.67,9.78c0-0.04,0.04-0.04,0.04-0.08
			C142.67,9.7,142.58,9.7,142.67,9.78z M142.67,28.54c0,0,0.04-0.08,0.04-0.12C142.67,28.46,142.58,28.42,142.67,28.54z
			 M142.71,28.42c0.08,0,0.17-0.04,0.17-0.17C142.75,28.34,142.75,28.34,142.71,28.42z M142.87,38.65
			c-0.08,0.04-0.08,0.12-0.08,0.12C142.71,38.65,142.79,38.65,142.87,38.65z M142.87,9.45c0.04,0.04,0.12,0.08,0.04-0.04
			C142.92,9.4,142.92,9.45,142.87,9.45z M142.87,27.51c0.08,0,0.17-0.04,0.17-0.17C142.92,27.34,142.87,27.42,142.87,27.51z
			 M142.92,28.17c0,0.04,0,0.04-0.04,0.08C142.92,28.25,143.04,28.25,142.92,28.17z M143.16,38.48c-0.04,0.17-0.21,0.17-0.29,0.17
			C142.92,38.48,143.04,38.48,143.16,38.48z M143.12,39.77c-0.04,0-0.04-0.04-0.04-0.04c-0.04,0.04-0.12,0.04-0.17,0.04
			c0.04,0.04,0.04,0.04,0.12,0.04C143.04,39.81,143.08,39.81,143.12,39.77z M143.04,27.34c0.29,0,0.46-0.21,0.58-0.46
			c-0.12,0-0.17,0.04-0.29,0.04l-0.17,0.21L143.04,27.34z M143.33,38.32c-0.04,0.12-0.08,0.17-0.17,0.17
			C143.16,38.4,143.25,38.4,143.33,38.32z M143.25,9.07v0.08l0.04-0.08H143.25z M143.41,39.44l-0.08,0.08h0.08V39.44z M143.41,27.96
			c0.04-0.08,0.04-0.08,0.04-0.12C143.41,27.84,143.33,27.84,143.41,27.96z M143.54,27.67c0,0.04-0.04,0.12-0.04,0.12
			C143.54,27.8,143.62,27.8,143.54,27.67z M143.87,27.63c0-0.04,0-0.04,0.04-0.12C143.87,27.51,143.78,27.51,143.87,27.63z
			 M143.91,27.51c0.12-0.04,0.17-0.04,0.17-0.17C143.99,27.34,143.91,27.42,143.91,27.51z M144.41,37.9c-0.25,0-0.41,0.04-0.5,0.25
			C144.16,38.24,144.37,38.11,144.41,37.9z M144.07,26.6c0.12-0.04,0.17-0.04,0.17-0.12C144.16,26.47,144.07,26.51,144.07,26.6z
			 M144.16,27.26c0,0,0,0.04-0.08,0.08C144.16,27.34,144.24,27.34,144.16,27.26z M144.16,8.41h0.04V8.33L144.16,8.41z M144.24,26.47
			c0.12,0,0.29,0,0.29-0.17C144.41,26.31,144.28,26.31,144.24,26.47z M144.57,26.31c0.04,0,0.08-0.08,0.08-0.17
			C144.61,26.14,144.57,26.18,144.57,26.31z M144.57,37.57c0-0.04,0.04-0.08,0.04-0.08C144.65,37.57,144.61,37.57,144.57,37.57z
			 M144.74,26.14c0.04,0,0.08-0.04,0.08-0.17C144.78,25.97,144.74,26.02,144.74,26.14z M144.82,25.97c0.17,0,0.29,0,0.33-0.17
			C145.03,25.81,144.9,25.81,144.82,25.97z M144.99,38.07c-0.04,0-0.17,0-0.04,0.08C144.94,38.11,144.94,38.07,144.99,38.07z
			 M144.9,26.84c0.04,0,0.04,0.04,0.08,0.04C144.99,26.84,144.99,26.76,144.9,26.84z M145.15,37.9c-0.12,0-0.12,0.04-0.17,0.12
			C145.11,38.03,145.15,37.95,145.15,37.9z M145.11,7.75c0,0,0-0.04,0.04-0.04C145.11,7.71,145.03,7.71,145.11,7.75z M145.15,7.67
			c0.04,0,0.17,0,0.04-0.12C145.19,7.58,145.19,7.67,145.15,7.67z M145.15,25.81c0.12,0,0.17-0.04,0.17-0.08
			C145.19,25.73,145.15,25.77,145.15,25.81z M145.73,37.28c-0.37,0.08-0.45,0.25-0.58,0.58C145.4,37.74,145.65,37.53,145.73,37.28z
			 M145.32,25.64c0.21,0.08,0.37-0.04,0.41-0.25C145.52,25.39,145.36,25.44,145.32,25.64z M145.48,36.99
			c-0.12,0-0.17,0.04-0.17,0.12C145.4,37.12,145.4,37.03,145.48,36.99z M145.48,26.47c-0.08,0-0.12,0.04-0.12,0.04
			c0,0.04,0.04,0.04,0.12,0.04V26.47z M145.4,38.07c0,0-0.08,0,0,0.08V38.07z M145.48,7.46l0.04,0.04l0.04-0.04H145.48z
			 M145.52,26.35c0,0-0.04,0.04-0.04,0.12C145.52,26.39,145.57,26.39,145.52,26.35z M145.65,36.83c-0.12,0-0.17,0.08-0.17,0.12
			C145.57,36.95,145.57,36.91,145.65,36.83z M145.65,37.9c-0.12,0-0.17,0.04-0.17,0.12C145.52,38.03,145.57,37.95,145.65,37.9z
			 M145.73,36.66c-0.04,0-0.08,0.08-0.08,0.17C145.69,36.79,145.73,36.75,145.73,36.66z M145.69,37.78l-0.04,0.08
			C145.69,37.86,145.77,37.9,145.69,37.78z M145.77,25.39c0.08,0,0.12-0.04,0.12-0.17C145.86,25.23,145.77,25.27,145.77,25.39z
			 M145.77,26.02l0.08,0.08v-0.08H145.77z M145.77,36.66c0.12-0.04,0.12-0.21,0.12-0.29h-0.12V36.66z M145.9,37.12
			c-0.04,0.04-0.12,0.04-0.12,0.17C145.86,37.28,145.9,37.2,145.9,37.12z M146.06,36.99c-0.12,0-0.17,0.04-0.17,0.12
			C146.02,37.12,146.06,37.03,146.06,36.99z M145.94,7.13l0.08,0.04V7.13H145.94z M145.94,25.23c0.08-0.04,0.12,0,0.08-0.12
			C145.94,25.11,145.94,25.19,145.94,25.23z M146.06,36.21c-0.04,0.04-0.12,0.04-0.12,0.17C146.02,36.37,146.06,36.29,146.06,36.21z
			 M146.06,37.41c-0.04,0.08-0.17,0-0.04,0.12C146.02,37.53,146.06,37.49,146.06,37.41z M147.26,34.88c-0.04,0-0.08,0.04-0.12,0.08
			c-0.17,0.37-0.33,0.75-0.62,1.08c-0.04,0.12-0.21,0.25-0.12,0.5c-0.25,0.04-0.33,0.21-0.33,0.41c0.21-0.04,0.33-0.21,0.33-0.41
			h0.29v0.12c0.08-0.04,0.12-0.04,0.12-0.12h-0.12c0-0.29,0.08-0.5,0.29-0.62c0-0.21,0.08-0.37,0.21-0.5
			C147.26,35.17,147.26,35.05,147.26,34.88z M146.23,37.28c-0.12,0.04-0.12,0.08-0.17,0.12C146.15,37.41,146.23,37.37,146.23,37.28z
			 M146.15,36.08c-0.04,0.08-0.04,0.08-0.04,0.12C146.15,36.21,146.23,36.21,146.15,36.08z M146.39,37.12
			c-0.12,0.04-0.17,0.04-0.17,0.17C146.31,37.28,146.39,37.2,146.39,37.12z M146.27,6.96L146.31,7V6.96H146.27z M146.48,36.99
			l-0.08,0.12c0.04,0,0.04,0,0.08-0.08V36.99z M146.64,36.66c-0.04,0-0.12,0-0.04,0.12C146.64,36.75,146.64,36.75,146.64,36.66z
			 M146.77,6.71h0.04l-0.04-0.08V6.71z M146.89,36.41c0,0-0.04,0.04-0.04,0.12l0.04-0.08C146.97,36.46,146.89,36.41,146.89,36.41z
			 M147.14,35.92h-0.12c0,0-0.04,0.08,0,0.12c0,0.04,0,0.12,0.04,0.12c0,0,0.08-0.08,0.08-0.12V35.92z M147.26,24.32
			c-0.08,0-0.12,0.04-0.12,0.12C147.22,24.44,147.26,24.36,147.26,24.32z M147.22,35.79c-0.04,0.04-0.04,0.08-0.04,0.08
			C147.22,35.87,147.26,35.87,147.22,35.79z M147.72,33.6v-0.12l-0.08,0.08c-0.08,0.21-0.08,0.41-0.21,0.58
			c-0.08,0.21-0.17,0.41-0.17,0.66c0.12-0.04,0.29-0.12,0.29-0.21c0-0.29,0.17-0.54,0.21-0.79
			C147.76,33.68,147.72,33.64,147.72,33.6z M147.39,35.54V35.5l-0.04,0.04H147.39z M147.72,34.88l-0.08,0.04h0.08V34.88z
			 M147.76,32.81v0.25c0,0.12,0,0.17,0.04,0.17c0,0,0.08-0.04,0.08-0.12c0.04-0.08,0-0.21,0-0.29l-0.08-0.08
			C147.8,32.81,147.76,32.81,147.76,32.81z M147.97,34.59c0-0.04,0-0.04-0.04-0.04c0,0-0.04,0.04-0.12,0.04c0,0.08,0,0.08,0.08,0.08
			C147.93,34.67,147.97,34.59,147.97,34.59z M148.01,32.19c0.08,0,0.12,0,0.12-0.04c0.04-0.04-0.04-0.33-0.17-0.33l-0.04,0.08
			C147.89,31.98,147.93,32.19,148.01,32.19z M147.93,31.52l0.04,0.04c0-0.04,0-0.12,0.04-0.17h-0.04
			C147.97,31.4,147.93,31.44,147.93,31.52z M147.97,33.97l-0.04,0.04h0.08C148.01,33.97,147.97,33.97,147.97,33.97z M147.97,29.58
			h0.04l-0.04-0.04V29.58z M148.18,34.22c-0.04,0-0.17,0-0.04,0.12C148.13,34.34,148.18,34.3,148.18,34.22z M148.09,30.2
			c0,0.04,0.04,0.08,0.04,0.12c0.04-0.04,0.04-0.08,0.04-0.08v-0.29c0,0-0.04-0.04-0.04-0.08c0,0.04-0.04,0.04-0.04,0.08V30.2z
			 M148.18,32.64l-0.04-0.08l-0.04,0.08c0,0,0.04,0,0.04,0.04L148.18,32.64z M148.13,33.47l-0.04,0.08h0.04V33.47z M148.3,24.32
			c-0.04,0.04-0.04,0.12-0.04,0.12C148.3,24.44,148.34,24.44,148.3,24.32z M148.26,30.95l0.04,0.04v-0.04H148.26z M148.63,24.23
			c0-0.08-0.08-0.08-0.08,0v0.04C148.63,24.28,148.63,24.23,148.63,24.23z M149.42,22.78c-0.12,0.33-0.41,0.42-0.75,0.46
			C148.88,22.95,149.05,22.83,149.42,22.78z M149.87,22.45c-0.08,0.21-0.21,0.33-0.46,0.33C149.5,22.58,149.67,22.45,149.87,22.45z
			 M153.98,20.63c-0.21-0.04-0.37,0-0.5,0.17c-0.08,0-0.12-0.04-0.17-0.04c-0.08,0,0-0.12,0.04-0.17l0.33-0.08
			c0.04-0.08,0.08-0.08,0.17-0.12c0.04,0,0.08-0.12,0.08-0.17h-0.17c-0.21,0.04-0.41,0.17-0.62,0.29c-0.7,0.29-1.33,0.62-1.99,0.95
			c0,0-0.04,0.04-0.04,0.08c0.21,0.08,0.41-0.04,0.62-0.17c0.25-0.08,0.46-0.29,0.75-0.29c0.08-0.17,0.29-0.17,0.46-0.29l0.08,0.08
			c0,0.04,0,0.04-0.04,0.08c0,0.04,0,0.12-0.04,0.12C153.35,21.09,153.6,20.96,153.98,20.63z M151.12,22.04c0.17,0,0.25,0,0.41-0.04
			c0.21-0.25,0.58-0.25,0.75-0.5c0.08-0.04,0.08-0.04,0.08-0.12C151.86,21.5,151.49,21.71,151.12,22.04z M151.7,22.62
			c-0.04,0.21-0.21,0.33-0.41,0.33c-0.04,0-0.12-0.08-0.12-0.08c0-0.04,0.08-0.08,0.08-0.12C151.36,22.58,151.53,22.62,151.7,22.62z
			 M151.99,22.58c0,0,0,0.04-0.08,0.04h-0.17c0-0.04,0.08-0.12,0.12-0.12C151.86,22.45,151.99,22.49,151.99,22.58z M152.32,22.37
			l-0.08,0.08C152.19,22.41,152.23,22.37,152.32,22.37z M152.94,21.13h-0.46l-0.12,0.25C152.57,21.38,152.77,21.33,152.94,21.13z
			 M153.35,21.83h-0.04l-0.08-0.08h0.08C153.35,21.75,153.35,21.75,153.35,21.83z M153.73,21.38h0.41
			c-0.04,0.25-0.25,0.17-0.37,0.29c-0.04-0.04-0.04-0.04-0.04-0.12C153.68,21.5,153.73,21.46,153.73,21.38z M155.01,20.22
			c-0.08,0-0.25-0.04-0.33,0.04c-0.21,0.12-0.54,0.12-0.7,0.37c0.17,0,0.33,0,0.46-0.04C154.64,20.42,154.93,20.42,155.01,20.22z
			 M154.22,20.13l0.08,0.04l0.12-0.12h-0.17C154.22,20.05,154.22,20.13,154.22,20.13z M154.47,20.01h0.25
			c0.12,0,0.17-0.04,0.17-0.12h-0.25C154.6,19.88,154.47,19.97,154.47,20.01z M154.72,20.96h-0.21c0,0,0,0.04-0.04,0.04
			c0.04,0.08,0.12,0.08,0.17,0.08C154.68,21.09,154.68,21,154.72,20.96z M155.05,20.88c-0.04,0-0.04-0.08-0.04-0.08
			c-0.17,0-0.21,0-0.21,0.17c0.04-0.04,0.08-0.04,0.21-0.04C155.01,20.92,155.01,20.88,155.05,20.88z M154.97,19.84h0.12
			c0.08,0,0.08-0.04,0.08-0.04c0-0.04-0.08-0.04-0.08-0.04C155.01,19.76,154.97,19.8,154.97,19.84z M156.46,19.76h-0.25
			c-0.37,0.08-0.75,0.25-1.12,0.37c-0.04,0-0.04,0.04-0.04,0.04c0.54,0.04,0.95-0.17,1.41-0.37V19.76z M155.71,20.63h-0.37
			c0,0.08-0.08,0.08-0.08,0.08c0,0.04,0.08,0.04,0.08,0.04C155.47,20.8,155.59,20.8,155.71,20.63z M155.43,19.64
			c0.04,0.04,0.04,0.04,0.12,0.04c0.04,0,0.08,0.08,0.17,0l0.04-0.04l-0.04-0.04h-0.17C155.47,19.59,155.47,19.64,155.43,19.64z
			 M155.96,20.51c-0.12,0-0.25-0.08-0.25,0.12C155.8,20.63,155.96,20.71,155.96,20.51z M156,19.51h0.08v-0.04L156,19.51z
			 M156.38,20.42c0-0.04,0-0.04-0.04-0.04c-0.12-0.04-0.25-0.12-0.33,0.12c0.12,0,0.21,0,0.33-0.08H156.38z M156.46,19.76
			c0.08-0.08,0.25-0.08,0.37-0.08c0,0,0.04,0,0.04-0.04c0,0-0.04,0-0.04-0.04C156.67,19.59,156.54,19.51,156.46,19.76z
			 M156.87,20.18c0,0-0.04,0-0.12,0.04c-0.04,0-0.08,0-0.08,0.04c0,0,0,0.08,0.04,0.08c0.04,0,0.12,0,0.12-0.08
			C156.87,20.26,156.87,20.22,156.87,20.18z M157.33,20.13c-0.04,0-0.04-0.08-0.08-0.08c-0.12-0.04-0.29-0.04-0.33,0.12h0.33
			C157.29,20.18,157.29,20.13,157.33,20.13z M157.08,19.47c0.04,0.04,0.12,0.04,0.12,0.12c0.04-0.08,0.08-0.08,0.08-0.08
			c0-0.04-0.04-0.08-0.08-0.08C157.21,19.43,157.12,19.47,157.08,19.47z M157.5,19.84c0-0.08-0.08-0.08-0.21-0.08
			c0,0,0,0.04-0.04,0.04l0.04,0.04H157.5z M157.95,19.97l-0.08-0.08h-0.37c0.08,0.17,0.21,0.12,0.37,0.12L157.95,19.97z
			 M157.87,19.39l0.08-0.08h-0.25C157.79,19.39,157.83,19.39,157.87,19.39z M158.08,19.64c-0.04,0-0.04-0.04-0.04-0.04
			c-0.04,0-0.08,0.04-0.12,0.04c0.04,0.04,0.04,0.04,0.08,0.04C157.99,19.68,158.03,19.68,158.08,19.64z M158.03,19.02l-0.04,0.04
			h0.08L158.03,19.02z"/>
		<path d="M156.12,28.87h0.25v0.62c0.25-0.33,0.58-0.62,0.62-1.08c0.17,0,0.29-0.08,0.33-0.08c0,0-0.04-0.17-0.04-0.29V27.8h-0.08
			v-0.04c-0.25-0.17-0.25-0.17,0-0.37v0.37h0.08v0.04h0.12c0,0,0.08,0.04,0.08,0.21c0.04-0.17,0.04-0.21,0.12-0.21
			c0.08,0.04,0.17,0.21,0.17,0.25c-0.08,0.12-0.17,0.37-0.29,0.5c-0.33,0.45-0.5,1.08-0.87,1.45c0.21,0.37-0.25,0.5-0.33,0.79
			c0,0.25-0.04,0.54-0.17,0.74c-0.12,0.54-0.41,1.08-0.54,1.49c0,0.04,0,0.08,0.08,0.21l0.04-0.12c0.41-0.33,0.91-0.58,1.24-0.99
			l1.95-1.74c0.08-0.33,0.33-0.37,0.62-0.54c0.17-0.21,0.25-0.33,0.45-0.54l3.65-2.98c0.37-0.25,0.7-0.54,1.28-0.66
			c0.12-0.08,0.21-0.12,0.25-0.21c0.33-0.41,0.79-0.58,1.2-0.7c0.37-0.17,0.7-0.29,0.99-0.66c0.33-0.33,0.7-0.45,1.2-0.66
			c0.41-0.25,0.83-0.5,1.2-0.66c0.66-0.33,1.28-0.54,1.99-0.5c0.12,0,0.25-0.04,0.33,0c0.25,0.46,0.54,0.5,0.99,0.5v0.04
			c-0.17,0.37,0.25,0.29,0.25,0.62c0.12,0.83-0.04,1.62-0.58,2.24c-0.41,0.62-0.99,1.08-1.33,1.74c-0.12,0.12-0.21,0.21-0.37,0.21
			c-0.12,0-0.29,0-0.46-0.08c-0.21-0.04-0.29,0-0.41,0.17c-0.29,0.46-0.58,0.87-0.79,1.33c-0.41,0.71-0.79,1.28-1.24,1.86
			c0,0.04-0.08,0.21-0.08,0.21c0.08,0.12,0.25,0.17,0.29,0.12c0.33,0,0.62-0.12,0.83-0.17c1.2-0.37,2.4-1,3.44-1.7
			c0.58-0.33,1.04-0.71,1.62-1.16c0.75-0.5,1.41-1.04,2.15-1.53c0.99-0.87,2.15-1.53,3.31-2.19c0.33-0.21,0.75-0.41,1.08-0.58
			c0.33-0.29,0.7-0.29,1.16-0.25c0.04,0,0.25,0,0.33,0.08c0.33,0.25,0.7,0.58,0.91,1.08c0.08,0.17-0.04,0.46-0.25,0.46h-0.29
			c-0.21-0.08-0.37-0.21-0.66-0.12l-1.16,0.41c-0.79,0.54-1.53,0.99-2.24,1.57c-0.12,0.17-0.33,0.29-0.41,0.37
			c-0.7,0.29-1.16,0.7-1.78,1.16c-0.7,0.54-1.41,1-2.07,1.66c-0.75,0.29-1.37,0.91-1.99,1.24c-0.41,0.12-0.7,0.37-1.08,0.58
			c-1.2,0.66-2.57,0.95-3.98,0.79c-0.75-0.17-1.41-1.12-1.03-2.11c0.08-0.12,0.25-0.29,0.29-0.5c0.87-1.28,1.78-2.49,2.57-3.69
			c0.33-0.45,0.5-0.79,0.62-1.28c0.04-0.29,0.46-0.54,0.58-0.83c0.08-0.12,0-0.21-0.12-0.25v-0.29h-0.41c0-0.21,0.08-0.25,0.33-0.33
			c0.21-0.17,0.5-0.33,0.83-0.46l0.04-0.12c-0.04-0.12-0.12-0.12-0.21-0.12c-0.5,0.17-0.99,0.54-1.49,0.71
			c-1.2,0.41-2.07,1.16-3.11,1.78c-0.66,0.25-1.24,0.7-1.86,1.2c-0.58,0.37-1.24,0.91-1.82,1.41c-1.12,0.95-2.24,1.82-3.27,2.78
			c-0.46,0.41-0.83,0.74-1.12,1.28c0.25,0.04,0.37-0.17,0.5-0.21c1.08-0.95,1.99-1.82,3.02-2.65c0.5-0.33,0.95-0.66,1.37-1.04
			c0.37-0.17,0.62-0.58,1.03-0.58l0.04,0.04c-0.04,0-0.04-0.04-0.04-0.04c0.12-0.12,0.17-0.29,0.25-0.29
			c0.37-0.37,0.91-0.7,1.41-1.03c0.12-0.12,0.29-0.17,0.41-0.17c0.08-0.12,0.17-0.17,0.25-0.17c0.17-0.17,0.29-0.29,0.41-0.29v0.29
			c0.08-0.12,0.12-0.12,0.12-0.12c0-0.04-0.04-0.04-0.12-0.17c0.25-0.41,0.62-0.62,1.08-0.54c0.04,0.04,0.04,0.08,0.04,0.12h0.37
			c-0.08,0.17-0.17,0.21-0.21,0.29c-0.62,0.45-1.2,0.79-1.86,0.99v-0.21c-0.08,0.12-0.17,0.12-0.21,0.21c-0.17,0-0.37,0-0.45,0.21
			h0.37c-0.08,0.12-0.17,0.25-0.29,0.37c-1.24,0.95-2.32,1.86-3.56,2.78c-0.66,0.54-1.28,1.04-1.82,1.7
			c-0.99,1.08-2.11,1.99-3.19,2.98c-0.17,0.33-0.75,0.33-0.87,0.83c-0.33,0.25-0.66,0.54-0.99,0.75c-0.04,0.04-0.21,0.04-0.41,0.04
			c-0.46-0.04-0.75-0.5-0.99-0.87c-0.25-0.29-0.25-0.75,0-1.08c0.37-0.79,0.58-1.49,0.79-2.28c0-0.04,0.08-0.04,0.12-0.08v0.21
			c0.08,0,0.08,0.04,0.17,0.04v-0.17c0-0.04-0.08-0.04-0.17-0.08c0.08-0.29-0.04-0.5,0.29-0.62v0.12c0,0.08,0.04,0.17,0.04,0.17
			c0.12,0,0.12-0.08,0.12-0.17c0.04-0.04,0.04-0.12,0.04-0.12h0.12c0.04,0.12,0.04,0.29,0.04,0.41c0,0,0.08,0,0.12,0.08
			c0-0.08,0.04-0.08,0.04-0.08c0-0.12,0-0.29,0.12-0.41h-0.12v-0.04h-0.17v0.04h-0.04v-0.04h0.04c-0.04-0.17-0.04-0.33-0.17-0.41
			c0-0.12,0.04-0.29,0.04-0.37c0.41,0.17,0.29-0.12,0.29-0.29c-0.21-0.12-0.21-0.25,0-0.37v0.37c0.25-0.08,0.25-0.25,0.25-0.37
			c0.25-0.12,0.25-0.25,0.25-0.46c-0.17,0.04-0.25,0.25-0.25,0.42h-0.12v0.04h-0.12V29.7h0.12c-0.12-0.42,0-0.71,0.37-0.83v0.41
			C156.12,29.21,156.12,29,156.12,28.87h-0.17c0-0.25,0-0.41,0.17-0.45V28.87z M155.59,31.19v0.04c0.12-0.04,0.12-0.33,0.12-0.45
			c-0.25,0.08-0.25,0.25-0.25,0.41H155.59z M155.96,30.37c-0.17,0.04-0.25,0.17-0.25,0.33v0.08
			C155.96,30.7,155.96,30.49,155.96,30.37z M156.37,28c0.08-0.33,0.17-0.62,0.37-0.87C156.83,27.51,156.75,27.8,156.37,28z
			 M156.95,28.42c-0.12,0.04-0.21,0.12-0.33,0.21c0-0.17,0-0.29,0.12-0.45c0-0.04,0.08-0.04,0.12-0.12c0,0.08,0.08,0.12,0.08,0.25
			V28.42z M156.83,27.13c0-0.29,0.04-0.5,0.37-0.54C157.2,26.84,157.16,26.97,156.83,27.13z M157.86,26.31v0.41h0.21v-0.08
			l0.08-0.04c0.29-0.08,0.21-0.33,0.17-0.5c0.25-0.04,0.17-0.45,0.41-0.58c0.17-0.08,0.25-0.12,0.41-0.12c0,0,0.08,0,0.17,0.04
			c-0.12,0.21-0.29,0.5-0.41,0.62c0,0,0-0.08-0.04-0.08l-0.12,0.08h0.17v0.04c-0.04,0.5-0.33,0.75-0.7,1.04
			c-0.17,0.17-0.41,0.37-0.58,0.62h-0.21v-0.37c0.37-0.08,0.46-0.41,0.46-0.66h-0.25C157.7,26.6,157.62,26.43,157.86,26.31z
			 M157.41,26.06c0.08-0.25,0.12-0.5,0.46-0.62C157.86,25.77,157.7,25.97,157.41,26.06z M159.15,23.57c0-0.37,0.08-0.5,0.41-0.66
			C159.52,23.2,159.4,23.45,159.15,23.57z M181.06,4.1c0,0.04-0.04,0.17-0.04,0.33c-2.44,5.26-2.57,4.27-2.86,4.68
			c-0.17,0.25-0.5,0.37-0.7,0.66c-0.46,0.62-1.08,1.16-1.66,1.7c-0.41,0.37-0.95,0.75-1.16,1.16l-1.08,1.2
			c-0.66,0.79-1.45,1.41-2.15,2.07c-0.83,0.71-1.66,1.33-2.53,1.99c-0.66,0.54-1.41,1.12-2.15,1.62c-1.08,0.91-2.4,1.66-3.65,2.4
			l-0.41,0.21c-0.46,0.12-0.79,0.29-1.24,0.58c-0.21,0.21-0.62,0.33-1.03,0.37c0-0.17-0.12-0.17-0.17-0.17
			c-0.04-0.12-0.04-0.37-0.17-0.37c-0.29-0.12-0.08-0.41-0.21-0.62c-0.08,0,0-0.21,0-0.21c0.58-0.17,0.83-0.7,1.2-1.04
			c0,0.04,0.04,0.12,0.04,0.21c0.12-0.04,0.25-0.04,0.29-0.08c0.17-0.12,0.21-0.37,0.5-0.5c0-0.42,0.25-0.62,0.66-0.79v0.45
			c0.33,0.17,0.33-0.54,0.75-0.29c0,0,0.04-0.04,0.12-0.17c0.17-0.17,0.33-0.37,0.33-0.66h-0.17c0.04-0.08,0.12-0.08,0.12-0.17
			c0.04,0.08,0.04,0.08,0.04,0.17c0.37-0.21,0.7,0.12,1.04-0.21c0.21-0.29,0.5-0.5,0.79-0.74c0.37-0.29,0.79-0.62,1.24-0.91
			c0.25-0.08,0.54-0.33,0.7-0.54c0.7-0.46,1.2-1,1.91-1.53c0.83-0.54,1.62-1.33,2.36-1.99c0.83-0.7,1.53-1.41,2.32-2.11
			c1.9-1.95,3.65-3.85,4.97-6.54c0.21-0.46,0.04-0.75-0.25-1.16c-0.04-0.04-0.37-0.12-0.37-0.04c-0.21,0.21-0.58,0.29-0.75,0.7
			c-0.08,0.12-0.08,0.17-0.25,0.29c-0.58,0.37-1.08,0.75-1.57,1.2c-3.98,3.56-2.82,3.02-4.85,4.85c-0.08,0.12-0.08,0.08-0.08,0.17
			c-0.12,0.04-0.21,0-0.29,0c-0.08-0.08-0.25-0.08-0.29-0.08V9.99c-0.12,0-0.21,0.04-0.21,0.21h0.21v0.21
			c0.21,0.17,0.21,0.25,0,0.41V10.4l-0.21-0.21c-0.12,0.08-0.33,0.12-0.41,0.21c-0.04,0.17-0.04,0.29-0.04,0.41h0.04l-0.04,0.04
			c0.33-0.17,0.33-0.17,0.66-0.04c-0.08,0.12-0.12,0.25-0.29,0.37c-0.21,0.29-0.25,0.5-0.25,0.79c-0.08,0.29-0.25,0.7-0.58,0.91
			c-0.41,0.04-0.87,0.41-1.24,0.66l0.04,0.04c0,0-0.04,0-0.04-0.04c0,0.33-0.17,0.5-0.37,0.62h-0.08c-0.08,0-0.08-0.08-0.08-0.08
			c-0.08,0-0.08,0.08-0.08,0.08h0.12c0,0.08,0,0.08-0.04,0.21c0-0.12,0-0.12-0.08-0.21h-0.21v-0.33c-0.12,0.04-0.33,0.04-0.46,0.12
			v-0.37c-0.12,0.12-0.21,0.12-0.37,0.17c0-0.04,0-0.17,0.12-0.21c0.17-0.33,0.37-0.62,0.7-0.87c0.08,0.17,0.08,0.17,0.17,0.21
			c0-0.04,0.04-0.04,0.04-0.21h-0.21c0.08-0.45,0.46-0.83,0.83-0.99v0.45c0.12-0.08,0.29-0.17,0.37-0.29c0,0.21-0.04,0.37-0.08,0.5
			c-0.08,0.17-0.17,0.21-0.25,0.33c0.17,0.21,0.33,0.25,0.54,0c0.12-0.12,0.25-0.29,0.29-0.41c0.29-0.29,0.29-0.62,0.5-1.08h0.12
			c0-0.04,0.04-0.12,0.04-0.21c-0.12,0-0.17,0.08-0.29,0.21c-0.17,0.21-0.37,0.33-0.58,0.5v-0.33c-0.08,0.04-0.29,0.12-0.33,0.12
			l-0.29,0.21c0-0.33,0.17-0.71,0.62-0.71v0.21c0.17,0,0.17-0.04,0.21-0.21h-0.21v-0.12c0.21-0.37,0.41-0.74,0.83-0.87
			c0.04,0.12,0.04,0.29,0.04,0.33h0.17V9.99h-0.17c0.17-0.62,0.5-1.08,1.03-1.24c0.08,0.04,0.17,0.17,0.25,0l0.12-0.25h-0.12
			c-0.12-0.54,0.41-0.62,1.91-2.2c0.7-0.58,1.28-1.04,1.86-1.66c0.25-0.21,0.5-0.5,0.79-0.58c0.17-0.12,0.33-0.25,0.5-0.41
			c0.21-0.25,0.37-0.37,0.66-0.58c0.54-0.66,1.41-0.66,2.28-0.62c1.03,0,1.53,0.66,2.2,1.37C181.06,3.9,181.06,3.94,181.06,4.1z
			 M159.89,24.36c0.08-0.08,0.17-0.08,0.29-0.12c0,0.04,0,0.21-0.12,0.25c0,0-0.08,0.08-0.17,0.08
			C159.85,24.57,159.85,24.44,159.89,24.36z M160.22,23.16h0.17v0.41h-0.17V23.16z M164.28,17.77c0-0.12,0-0.12-0.04-0.17
			c-0.29,0.17-0.5,0.29-0.5,0.58v0.08c-0.29,0.08-0.41,0.29-0.33,0.58c-0.17,0-0.33,0.17-0.45,0.29c-0.17,0.17-0.29,0.21-0.41,0.37
			V19.1c-0.17,0.04-0.33,0.12-0.46,0.21c0-0.29,0.17-0.45,0.46-0.62v0.42c0.25-0.12,0.41-0.33,0.41-0.62
			c-0.08,0-0.17-0.04-0.21-0.04v0.04h-0.08l0.08-0.04c-0.08-0.29,0.12-0.5,0.33-0.62c0,0.12,0,0.33,0.17,0.45
			c-0.21,0-0.29,0.08-0.29,0.17c0.12,0.04,0.29,0,0.29-0.17c0.21-0.12,0.37-0.33,0.33-0.66h-0.17c0-0.33,0.04-0.54,0.33-0.62v0.45
			c0.21-0.17,0.37-0.21,0.5-0.29v0.45h0.08C164.33,17.65,164.33,17.65,164.28,17.77z M164.24,16.78c-0.12,0-0.29,0.12-0.5,0.17
			c0.08-0.04,0.08-0.17,0.08-0.21C163.95,16.45,164.12,16.61,164.24,16.78z M164.04,27.63c0.04,0.04-0.04,0.12,0.08,0.04
			C164.12,27.67,164.08,27.63,164.04,27.63z M164.24,17.15v-0.37l0.25-0.17c0.12-0.21,0.41-0.33,0.54-0.5
			C164.99,16.65,164.82,16.78,164.24,17.15z M164.91,17.44c0.08,0,0.21-0.17,0.25-0.21c0.17-0.08,0.29-0.33,0.5-0.17
			c0.12,0.17-0.08,0.37-0.21,0.46c-0.17,0.12-0.33,0.37-0.54,0.45c-0.12,0.17-0.33,0.21-0.46,0.21l0.17-0.58
			C164.78,17.61,164.82,17.53,164.91,17.44z M165.03,16.12c0-0.37,0.25-0.54,0.46-0.58C165.49,15.79,165.44,16.08,165.03,16.12z
			 M166.15,13.96c0-0.08,0.08-0.12,0.17-0.12l0.04,0.12v0.08c0.12,0,0.25,0,0.37-0.08c0,0.12-0.08,0.21-0.08,0.29
			c-0.04,0.17-0.04,0.29-0.04,0.37h0.21c0.17,0,0.33,0.08,0.33,0.25c0,0.04-0.08,0.12-0.29,0.12c-0.12,0.12-0.25,0.12-0.25,0.25
			c0.04,0.04,0.21,0.04,0.37,0.04c0,0,0,0.12,0.08,0.17h-0.08c-0.17,0-0.33,0-0.37,0.08c0,0.17,0.12,0.25-0.12,0.37
			c-0.25,0.08-0.41,0.08-0.62,0.17c-0.17,0-0.17-0.08-0.08-0.29c0-0.04,0.08-0.21,0.17-0.25c-0.17-0.08-0.29-0.08-0.45-0.08
			c0-0.17,0.17-0.29,0.29-0.33c0.21-0.21,0.29-0.42,0.37-0.71c0.17-0.04,0.17-0.25,0.21-0.37h-0.04v-0.08H166.15z M165.49,14.75
			c0.08-0.33,0.37-0.5,0.58-0.71v0.37C165.94,14.58,165.69,14.71,165.49,14.75z M165.65,16.74c0,0-0.08,0-0.08-0.08
			c0.08-0.04,0.12-0.21,0.21-0.25c0.08,0,0.08,0,0.08,0.04C165.94,16.65,165.78,16.74,165.65,16.74z M168.01,12.68
			c-0.21,0.21-0.37,0.33-0.37,0.7h0.21C167.85,13.18,168.05,13.01,168.01,12.68z M167.81,25.11v-0.08h0.04v0.08H167.81z
			 M168.3,25.11h-0.08v-0.08h-0.37c0.21-0.29,0.5-0.45,0.99-0.58c0,0.12-0.12,0.29-0.17,0.33c-0.12,0.08-0.37,0-0.46,0.25h0.08
			V25.11h0.37c-0.08,0.12-0.33,0.04-0.37,0.12V25.11z M169.71,24.23h0.46c-0.12,0.25-0.41,0.37-0.66,0.54
			c-0.08,0-0.25-0.04-0.33-0.04c0.08-0.12,0.21-0.12,0.25-0.17c0.04-0.04,0.08-0.08,0.08-0.12h-0.62c0.21-0.37,0.54-0.5,0.83-0.5
			V24.23z M171.41,8.83l0.12-0.17c0.04-0.04,0.08-0.08,0.08-0.12l0.04-0.04c0.12,0,0.21-0.04,0.21-0.21h-0.08l0.04-0.04
			c-0.29,0.12-0.46,0.29-0.58,0.58c-0.25,0.12-0.41,0.37-0.41,0.66C171.08,9.32,171.37,9.2,171.41,8.83z M172.9,7
			c-0.25,0.12-0.41,0.29-0.58,0.41c0,0.17-0.12,0.21-0.25,0.25v0.37c-0.04,0.04-0.04,0.12-0.04,0.17c0,0,0.08-0.08,0.12-0.21h-0.04
			c0,0,0.04-0.04,0.08-0.04l0.5-0.45l0.08-0.12C172.9,7.29,172.9,7.13,172.9,7z M177.62,7.17c-0.17,0.12-0.17,0.29-0.17,0.45
			C177.71,7.54,177.71,7.33,177.62,7.17z"/>
		<path d="M198.84,25.44c0,0.08-0.21,0.12-0.25,0.12c-0.7,0.08-1.28,0.41-1.99,0.71c-1.03,0.45-2.07,0.83-3.07,1.24
			c-0.12,0.08-0.29,0.08-0.33,0.17c-0.83,0.62-1.86,0.79-2.73,1.28c-0.91,0.37-1.82,0.79-2.69,1.2c-1.24,0.7-2.61,1.2-4.06,1.41
			c-0.25,0.08-0.41,0.08-0.58,0.29c-0.83,0.33-1.53,0.04-2.24-0.21c-0.46-0.12-0.79-0.33-1.08-0.62c-0.5-0.37-0.7-0.91-0.87-1.41
			c-0.17-0.91-0.17-1.08,0-1.82l0.29-0.54c0.66-1.49,1.66-2.69,2.9-3.69c1.16-1.08,2.36-2.03,3.77-2.78
			c0.37-0.29,0.95-0.54,1.49-0.62c0.37-0.17,0.87-0.21,1.24-0.37c0.54-0.37,0.99-0.46,1.49-0.12c0.08,0.12,0.21,0,0.37,0.12
			c0.17,0.04,0.41,0.08,0.46,0.17c0.33,0.29,0.54,0.7,0.66,0.91c0.33,0.58,0.33,1.16-0.08,1.62c-0.54,0.66-0.87,1.41-1.7,1.74
			l-0.58,0.37c-1.12,0.91-2.49,1.33-3.85,1.53c-0.37,0.17-0.83,0.12-1.2,0.12c-0.54,0-1.2-0.12-1.86-0.12c-0.12,0-0.21,0-0.37,0.17
			c-0.66,0.95-1.49,1.82-1.86,2.9c-0.12,0.41,0.04,0.66,0.33,0.79c0.46,0.12,0.99,0.37,1.41,0.12c0.91,0,1.82-0.29,2.65-0.5
			c0.7-0.12,1.45-0.58,2.11-0.79c0.79-0.37,1.41-0.7,2.11-1.08c0.21,0.25,0.21,0.25,0.41,0c0.29-0.29,0.66-0.5,1.08-0.66
			c0.08-0.17,0.29-0.17,0.54-0.25c1.37-0.58,2.78-1.28,4.06-1.82c0.41-0.25,0.79-0.29,1.2-0.45c0.33-0.12,0.75-0.33,1.03-0.54
			c0.54-0.17,0.87-0.12,1.2,0.33c0.12,0.12,0.25,0.21,0.37,0.25C198.93,24.77,199.09,25.23,198.84,25.44z M182.65,25.52
			c0.12,0.12,0.37,0,0.5,0c0.17-0.08,0.33-0.08,0.54-0.08v0.08c0.37-0.08,0.87-0.12,1.2-0.21c0.5-0.17,0.87-0.29,1.41-0.54
			c1.12-0.33,2.03-0.83,2.9-1.49c0.46-0.25,0.83-0.75,1.04-1.24c0.12-0.12,0.12-0.37,0.12-0.58c0.12-0.21-0.04-0.29-0.21-0.45
			c-0.12-0.12-0.29,0.04-0.33,0.17c-0.04,0.17-0.25,0.21-0.5,0.21c-0.91,0.08-1.82,0.33-2.61,0.83c-1.04,0.5-1.86,1.2-2.69,1.82
			l-1.12,1.08C182.85,25.15,182.6,25.39,182.65,25.52z"/>
		<path d="M202.13,8.45c-0.12,0.33-0.17,0.71-0.37,0.95c-0.12,0.21-0.25,0.37-0.37,0.58c-0.04,0.17-0.17,0.37-0.29,0.5
			c-0.08,0.12-0.21,0.25-0.25,0.37c-0.25,0.37-0.58,0.58-0.91,0.83c-0.29,0.25-0.66,0.41-1.04,0.62c-0.37,0.17-0.83,0.37-1.28,0.62
			c-0.17,0.12-0.41,0.21-0.66,0.25c-0.08,0-0.12-0.04-0.12-0.04c-0.08,0-0.08-0.08-0.08-0.12c0.37-0.46,0.75-0.91,1.12-1.33
			c0.17-0.25,0.33-0.33,0.46-0.5c0.33-0.33,0.58-0.7,0.83-1.04c0.12-0.12,0.17-0.25,0.25-0.37c0.54-0.62,0.87-1.33,1.2-2.07
			c0.04-0.25,0.04-0.41,0.04-0.62c0-0.12,0-0.25,0.08-0.29c0.04-0.08,0.04-0.12,0.12-0.12c0.29,0.17,0.5,0.37,0.75,0.54
			c0.29,0.25,0.41,0.62,0.54,0.99c0,0,0,0.08,0,0.12C202.13,8.41,202.13,8.41,202.13,8.45z"/>
		<path d="M214.17,25.6c-0.17,0-0.5-0.04-0.66,0.12h0.12c0,0.04-0.04,0.08-0.08,0.08h0.25v0.12c-0.29,0.21-0.46,0.33-0.83,0.5
			c-0.37,0.12-0.75,0.33-1.16,0.66c-0.04,0-0.21,0-0.37,0.04c-0.58,0.33-1.2,0.62-1.82,1c-0.41,0-0.04,0.41-0.41,0.41
			c-0.17,0.08-0.37,0.29-0.66,0.37c-0.5,0.41-1,0.7-1.57,1.08c-0.46,0-0.7,0.33-1.04,0.54c-0.41,0.17-0.46,0.37-0.46,0.74
			c0.04,0.42,0.04,0.75,0.12,1.08c0.21,0.74,0,1.41-0.25,2.03c-0.33,1.04-0.75,1.41-1.57,2.15c-0.54,0.54-1.12,1-1.66,1.45
			c-0.25,0.29-0.66,0.5-0.99,0.54c-0.41,0.12-0.75,0.12-1.04,0.25c-0.62,0.54-1.24,0.29-1.91,0c-0.5-0.25-0.99-0.37-1.37-0.62
			c-0.54-0.17-0.83-0.5-0.95-1.04c-0.21-0.58-0.25-1.12,0.08-1.7c0.04-0.12,0.12-0.17,0.25-0.37c0.83-0.79,1.78-1.45,2.78-2.03
			c0.41-0.33,0.91-0.62,1.41-0.95c1.08-0.62,2.07-1.37,3.23-2.03c0.21-0.21,0.29-0.33,0.04-0.58c-0.21-0.54-0.62-1-0.91-1.57
			c-0.54-0.87-1.04-1.95-1.62-2.82c-0.37-0.54-0.37-1.12-0.41-1.66c-0.04-0.41,0.04-0.87,0.41-1.24c0.33-0.33,0.87-0.71,1.33-0.83
			c0.7-0.04,1.45-0.29,2.2-0.17c1.03,0.04,1.7,0.58,2.36,1.24c0.25,0.25,0.17,0.5-0.04,0.66c-0.5,0.29-1.16,0.21-1.66-0.25
			c-0.12-0.12-0.12-0.17-0.21,0c-0.12,0.45-0.29,0.54-0.62,0.41c-0.41-0.25-0.7-0.04-1.03,0.04c-0.29,0.12-0.54,0.37-0.79,0.62
			c-0.29,0.21-0.46,0.5-0.29,0.87c0.04,0.66,0.37,1.24,0.7,1.82c0.54,0.83,1.08,1.57,1.41,2.36c0.17,0.41,0.29,0.41,0.7,0.21
			c1.08-0.7,2.28-1.33,3.52-1.9c0.12-0.12,0.21-0.17,0.37-0.17c-0.04,0.17-0.17,0.25-0.17,0.33c0.41,0.04,0.66-0.17,0.95-0.33
			c0.04,0,0.12-0.08,0.17-0.12c-0.12,0-0.29-0.17-0.33,0c-0.25,0.04-0.37,0.12-0.62,0.12c0.08-0.12,0.12-0.29,0.25-0.33
			c1.2-0.5,2.44-1.03,3.6-1.66h0.41v0.29c-0.21,0.04-0.37,0-0.41,0.21c0.17,0,0.33,0,0.5-0.21c0.08-0.12,0.04-0.17,0-0.29
			c0-0.04,0.04-0.12,0.08-0.17c0.66-0.29,1.45-0.54,2.11-0.71c0.5-0.04,0.41-0.04,0.87,0.29c0.17,0.12,0.29,0.21,0.21,0.41
			l-0.33,0.17c-0.25,0.12-0.5,0.12-0.66,0.17c-0.37,0.12-0.54,0.12-0.75-0.04c-0.12-0.12-0.29,0-0.33,0.17h-0.04
			C214.38,25.39,214.3,25.39,214.17,25.6h0.42C214.42,25.81,214.34,25.81,214.17,25.6z M204.36,31.52c-0.7,0.41-1.33,0.75-1.9,1.2
			c-0.87,0.79-1.74,1.37-2.73,1.91c-0.83,0.41-1.49,0.95-2.03,1.62c-0.04,0.08-0.17,0.21-0.17,0.29c-0.04,0.08,0,0.12,0.12,0.12
			c0.25,0.12,0.66,0.17,0.99,0.29c0.46,0.12,0.87,0.12,1.37,0c0.17,0,0.37-0.12,0.58-0.12c0.83-0.17,1.49-0.37,1.99-1.04
			c0.17-0.21,0.37-0.29,0.58-0.5C204.15,34.26,204.73,33.1,204.36,31.52z M203.45,30.7l0.04,0.08c0.12-0.08,0.29-0.12,0.41-0.25
			c0,0,0-0.04-0.08-0.04c-0.17,0-0.25,0-0.37,0.17V30.7z M205.93,29.21c-0.33-0.04-0.58,0.12-0.62,0.41
			C205.6,29.62,205.85,29.45,205.93,29.21z M206.97,28.54c-0.5,0.12-0.79,0.25-0.99,0.62C206.35,29.16,206.72,28.96,206.97,28.54z
			 M208.21,28.29h-0.37v-0.17c-0.37,0-0.66,0.04-0.83,0.41h0.62l0.21-0.25v0.25C208,28.54,208.21,28.54,208.21,28.29z M209.08,27.88
			h-0.33c-0.04,0.25-0.33,0.25-0.5,0.25c0.08-0.25,0.25-0.25,0.46-0.25v-0.12c-0.46-0.08-0.7-0.08-0.87,0.37h0.41v0.17
			C208.71,28.46,208.91,28.29,209.08,27.88z M209.58,27.76c-0.25-0.08-0.41-0.08-0.5,0.12C209.33,27.88,209.45,27.96,209.58,27.76z
			 M209.91,27.47c-0.17-0.04-0.29-0.04-0.33,0.21C209.7,27.76,209.91,27.67,209.91,27.47z M210.78,27.09
			c-0.21,0-0.33-0.08-0.41,0.17C210.57,27.3,210.74,27.3,210.78,27.09z M211.23,26.8c-0.17,0-0.37,0-0.46,0.29
			C211.07,27.09,211.15,27.09,211.23,26.8z M212.06,26.43h-0.33c0-0.17,0.04-0.29,0.08-0.41c-0.37-0.08-0.58,0.12-0.75,0.41h0.66
			v0.17C211.81,26.6,211.98,26.6,212.06,26.43z M212.93,25.6h-0.17c-0.12,0-0.12,0.04-0.17,0.04c0.04,0.08,0.04,0.08,0.17,0.08
			c0.04,0.08,0.12,0.08,0.17,0.08v0.12c0.21,0,0.5,0.21,0.58-0.12v-0.08h-0.58V25.6z"/>
	</g>
	<g>
		<path d="M102.57,155.42c-0.33-0.36-0.5-0.94-0.5-1.75v-4.81c-0.35-0.12-0.78-0.2-1.28-0.23c0-0.27,0.06-0.53,0.16-0.78h1.12v-2.35
			c0.46-0.13,0.9-0.37,1.32-0.71c0.12,0.06,0.2,0.14,0.23,0.24c0.03,0.1,0.05,0.33,0.05,0.68v2.13h2.31c0,0.25-0.05,0.51-0.16,0.78
			c-0.88,0.03-1.59,0.11-2.15,0.23v4.44c0,1.14,0.34,1.7,1.03,1.7c0.24,0,0.45-0.03,0.63-0.11c0.18-0.07,0.37-0.18,0.54-0.32
			c0.15,0.18,0.24,0.37,0.27,0.59c-0.2,0.22-0.5,0.41-0.88,0.57c-0.38,0.15-0.76,0.23-1.13,0.23
			C103.42,155.96,102.9,155.78,102.57,155.42z"/>
		<path d="M116.98,155.86c-0.51-0.03-1.15-0.05-1.94-0.05c-0.49,0-1.07,0.01-1.76,0.03c-0.08,0.01-0.2,0.02-0.35,0.02
			c0-0.34,0.03-0.6,0.09-0.76c0.44,0,0.75-0.11,0.94-0.34c0.19-0.22,0.28-0.63,0.28-1.21v-2.7c0-0.78-0.14-1.34-0.43-1.67
			c-0.29-0.33-0.7-0.5-1.22-0.5c-0.33,0-0.65,0.1-0.96,0.3s-0.56,0.53-0.75,0.98c-0.2,0.45-0.29,1.01-0.29,1.69v1.9
			c0,0.59,0.09,1,0.27,1.22c0.18,0.22,0.5,0.33,0.96,0.33c0.06,0.18,0.09,0.43,0.09,0.76c-1-0.03-1.7-0.05-2.11-0.05
			c-0.89,0-1.59,0.02-2.11,0.05c0-0.34,0.03-0.6,0.09-0.76c0.46,0,0.78-0.11,0.96-0.33c0.18-0.22,0.27-0.63,0.27-1.22v-7.96
			c0-0.31-0.03-0.55-0.09-0.73c-0.06-0.18-0.18-0.31-0.37-0.4c-0.19-0.09-0.48-0.13-0.87-0.13c0-0.27,0.05-0.49,0.16-0.66
			c0.3,0,0.72-0.06,1.26-0.19c0.54-0.13,0.92-0.27,1.12-0.41c0.26,0.08,0.39,0.32,0.39,0.71v4.51c0,0.38-0.04,0.73-0.12,1.05
			c0.02-0.03,0.06-0.1,0.1-0.19c0.04-0.09,0.1-0.18,0.17-0.28c0.24-0.33,0.58-0.63,1.04-0.89c0.46-0.26,0.97-0.39,1.54-0.39
			c0.74,0,1.35,0.23,1.83,0.69c0.47,0.46,0.71,1.2,0.71,2.2v3.05c0,0.59,0.08,1,0.25,1.22c0.17,0.22,0.43,0.33,0.8,0.33
			C116.95,155.27,116.98,155.53,116.98,155.86z"/>
		<path d="M125.02,154.19c0.09,0.11,0.14,0.21,0.15,0.3c-0.4,0.52-0.86,0.9-1.38,1.13c-0.51,0.23-1.11,0.34-1.78,0.34
			c-0.82,0-1.51-0.19-2.07-0.56c-0.56-0.37-0.99-0.88-1.27-1.52c-0.28-0.64-0.43-1.36-0.43-2.15c0-0.77,0.15-1.47,0.45-2.11
			c0.3-0.64,0.73-1.15,1.29-1.54c0.56-0.38,1.2-0.58,1.94-0.58c1.08,0,1.88,0.33,2.41,1c0.53,0.67,0.83,1.56,0.91,2.67
			c-0.05,0.24-0.14,0.44-0.27,0.6c-2.08,0-3.74,0.03-4.97,0.09c0.06,0.91,0.29,1.65,0.68,2.23c0.4,0.58,1.03,0.86,1.89,0.86
			c0.4,0,0.79-0.09,1.17-0.27c0.38-0.18,0.71-0.43,0.99-0.76C124.84,154,124.93,154.08,125.02,154.19z M120.55,148.97
			c-0.33,0.4-0.52,1.08-0.57,2.03h3.41c0-0.79-0.14-1.43-0.43-1.91c-0.29-0.48-0.69-0.72-1.2-0.72
			C121.28,148.36,120.88,148.56,120.55,148.97z"/>
		<path d="M134.95,150.19c-0.03-0.52-0.24-0.98-0.6-1.37c-0.37-0.39-0.83-0.59-1.38-0.59c-0.37,0-0.66,0.09-0.88,0.27
			c-0.22,0.18-0.33,0.41-0.33,0.71c0,0.23,0.05,0.41,0.14,0.56c0.1,0.15,0.29,0.3,0.59,0.47c0.3,0.17,0.76,0.37,1.38,0.62
			c0.65,0.25,1.16,0.49,1.52,0.73c0.36,0.24,0.62,0.5,0.77,0.79c0.15,0.29,0.23,0.65,0.23,1.07c0,0.74-0.31,1.35-0.92,1.81
			c-0.62,0.46-1.39,0.69-2.33,0.69c-0.68,0-1.22-0.05-1.64-0.16c-0.42-0.11-0.85-0.27-1.29-0.5c0.03-0.31,0.05-0.7,0.05-1.19
			c0-0.32-0.01-0.66-0.03-1.01c0.18-0.13,0.49-0.19,0.92-0.19c0.08,0.73,0.31,1.29,0.68,1.66c0.37,0.37,0.87,0.56,1.48,0.56
			c0.47,0,0.85-0.11,1.12-0.32c0.27-0.21,0.41-0.49,0.41-0.82c0-0.21-0.05-0.4-0.15-0.55c-0.1-0.15-0.29-0.31-0.56-0.46
			c-0.27-0.15-0.68-0.34-1.21-0.55c-0.69-0.27-1.21-0.52-1.58-0.74c-0.37-0.22-0.63-0.49-0.8-0.79c-0.17-0.3-0.25-0.69-0.25-1.16
			s0.15-0.88,0.46-1.21c0.31-0.33,0.69-0.58,1.15-0.75c0.46-0.17,0.91-0.26,1.33-0.26c0.52,0,0.98,0.05,1.38,0.15
			c0.4,0.1,0.79,0.26,1.17,0.47c-0.02,0.35-0.03,0.63-0.03,0.83c0,0.38,0.02,0.72,0.07,1.01
			C135.61,150.12,135.32,150.19,134.95,150.19z"/>
		<path d="M144.8,154.19c0.09,0.11,0.14,0.21,0.15,0.3c-0.4,0.52-0.86,0.9-1.38,1.13c-0.51,0.23-1.11,0.34-1.78,0.34
			c-0.82,0-1.51-0.19-2.07-0.56c-0.56-0.37-0.99-0.88-1.27-1.52c-0.28-0.64-0.43-1.36-0.43-2.15c0-0.77,0.15-1.47,0.45-2.11
			c0.3-0.64,0.73-1.15,1.29-1.54c0.56-0.38,1.2-0.58,1.94-0.58c1.08,0,1.88,0.33,2.41,1c0.53,0.67,0.83,1.56,0.91,2.67
			c-0.05,0.24-0.14,0.44-0.27,0.6c-2.08,0-3.74,0.03-4.97,0.09c0.06,0.91,0.29,1.65,0.68,2.23c0.4,0.58,1.03,0.86,1.89,0.86
			c0.4,0,0.79-0.09,1.17-0.27c0.38-0.18,0.71-0.43,0.99-0.76C144.62,154,144.71,154.08,144.8,154.19z M140.33,148.97
			c-0.33,0.4-0.52,1.08-0.57,2.03h3.41c0-0.79-0.14-1.43-0.43-1.91s-0.69-0.72-1.2-0.72C141.07,148.36,140.67,148.56,140.33,148.97z
			"/>
		<path d="M159.29,147.62c0,0.3-0.05,0.56-0.14,0.78c-0.19,0.05-0.34,0.14-0.46,0.27c-0.12,0.13-0.24,0.34-0.36,0.62
			c-0.12,0.28-0.29,0.73-0.49,1.35l-1.79,5.17c-0.18,0.11-0.45,0.16-0.82,0.16c-0.82-2.08-1.65-4.08-2.49-5.98l-2.33,5.82
			c-0.09,0.06-0.2,0.1-0.31,0.12c-0.11,0.02-0.27,0.03-0.47,0.03c-0.83-2.36-1.65-4.53-2.45-6.52c-0.13-0.33-0.26-0.57-0.4-0.71
			c-0.13-0.14-0.33-0.25-0.59-0.34c-0.07-0.19-0.11-0.44-0.11-0.76c0.62,0.02,1.2,0.04,1.74,0.04c0.7,0,1.35-0.02,1.95-0.05
			c0,0.37-0.03,0.63-0.09,0.78c-0.33,0.03-0.56,0.09-0.7,0.18c-0.14,0.08-0.2,0.2-0.2,0.35c0,0.13,0.05,0.31,0.14,0.53
			c0.38,0.95,0.89,2.36,1.54,4.23l2.33-6.02c0.15-0.05,0.39-0.07,0.71-0.07c0.66,1.52,1.5,3.55,2.5,6.11l1.01-3.02
			c0.17-0.51,0.25-0.93,0.25-1.28c0-0.33-0.08-0.57-0.24-0.73c-0.16-0.15-0.4-0.25-0.72-0.28c-0.11-0.25-0.16-0.51-0.16-0.78
			c0.45,0.03,0.98,0.05,1.58,0.05C158.36,147.67,158.89,147.65,159.29,147.62z"/>
		<path d="M160.78,155.09c0.47,0,0.8-0.11,0.97-0.33c0.17-0.22,0.26-0.63,0.26-1.22v-3.52c0-0.31-0.03-0.55-0.09-0.73
			c-0.06-0.18-0.18-0.31-0.37-0.4c-0.19-0.09-0.48-0.13-0.87-0.13c0-0.27,0.05-0.49,0.16-0.66c0.3,0,0.72-0.06,1.26-0.19
			c0.54-0.13,0.92-0.27,1.12-0.41c0.26,0.08,0.39,0.32,0.39,0.71v5.33c0,0.59,0.08,1,0.23,1.22c0.15,0.22,0.43,0.33,0.82,0.33
			c0.06,0.2,0.09,0.45,0.09,0.76c-0.62-0.03-1.28-0.05-2.01-0.05c-0.77,0-1.45,0.02-2.04,0.05
			C160.69,155.54,160.72,155.28,160.78,155.09z M161.91,145.2c-0.2-0.2-0.3-0.44-0.3-0.73c0-0.31,0.1-0.56,0.31-0.77
			c0.21-0.21,0.45-0.31,0.74-0.31c0.32,0,0.58,0.1,0.77,0.3c0.2,0.2,0.29,0.46,0.29,0.78c0,0.27-0.1,0.51-0.31,0.72
			c-0.21,0.21-0.46,0.31-0.75,0.31C162.36,145.5,162.12,145.4,161.91,145.2z"/>
		<path d="M175.67,155.86c-0.51-0.03-1.15-0.05-1.94-0.05c-0.49,0-1.07,0.01-1.76,0.03c-0.08,0.01-0.2,0.02-0.35,0.02
			c0-0.34,0.03-0.6,0.09-0.76c0.44,0,0.75-0.11,0.94-0.34c0.19-0.22,0.28-0.63,0.28-1.21v-2.7c0-0.78-0.14-1.34-0.43-1.67
			c-0.29-0.33-0.7-0.5-1.22-0.5c-0.33,0-0.65,0.1-0.96,0.3c-0.31,0.2-0.56,0.53-0.75,0.98c-0.2,0.45-0.29,1.01-0.29,1.69v1.9
			c0,0.59,0.09,1,0.27,1.22c0.18,0.22,0.5,0.33,0.96,0.33c0.06,0.18,0.09,0.43,0.09,0.76c-1-0.03-1.7-0.05-2.11-0.05
			c-0.9,0-1.6,0.02-2.11,0.05c0-0.34,0.03-0.6,0.09-0.76c0.46,0,0.78-0.11,0.96-0.33c0.18-0.22,0.27-0.63,0.27-1.22v-3.52
			c0-0.31-0.03-0.55-0.1-0.72c-0.07-0.17-0.19-0.3-0.38-0.39c-0.19-0.09-0.48-0.14-0.85-0.15c0-0.27,0.05-0.49,0.16-0.66
			c0.37-0.02,0.79-0.09,1.26-0.21c0.48-0.12,0.85-0.25,1.12-0.39c0.26,0.08,0.39,0.34,0.39,0.78c0,0.38-0.04,0.73-0.12,1.05
			c0.02-0.03,0.06-0.1,0.1-0.19c0.04-0.09,0.1-0.18,0.17-0.28c0.24-0.33,0.58-0.63,1.04-0.89c0.45-0.26,0.97-0.39,1.54-0.39
			c0.75,0,1.36,0.23,1.83,0.69c0.47,0.46,0.71,1.2,0.71,2.2v3.05c0,0.59,0.08,1,0.25,1.22c0.17,0.22,0.43,0.33,0.8,0.33
			C175.64,155.27,175.67,155.53,175.67,155.86z"/>
		<path d="M183.26,154.88c0.46,0.13,0.8,0.34,1,0.62c0.21,0.28,0.31,0.67,0.31,1.15c0,0.54-0.19,1.1-0.58,1.65
			c-0.39,0.56-0.92,1.02-1.59,1.38c-0.68,0.36-1.42,0.54-2.24,0.54c-1.07,0-1.85-0.2-2.34-0.6c-0.5-0.4-0.75-1-0.75-1.79
			c0-0.88,0.44-1.52,1.31-1.92c-0.32-0.11-0.54-0.26-0.66-0.47c-0.12-0.21-0.19-0.49-0.19-0.84c0-0.65,0.31-1.28,0.94-1.88
			c-0.35-0.25-0.63-0.56-0.83-0.95s-0.29-0.82-0.29-1.31c0-0.85,0.28-1.56,0.83-2.11c0.56-0.56,1.34-0.84,2.36-0.84
			c0.43,0,0.8,0.05,1.12,0.16h2.91c0.08,0.28,0.12,0.65,0.12,1.1c-0.54-0.13-1.12-0.23-1.72-0.29c0.27,0.27,0.48,0.58,0.61,0.92
			c0.14,0.34,0.2,0.66,0.2,0.94c0,0.86-0.28,1.58-0.85,2.14c-0.57,0.56-1.36,0.84-2.36,0.84c-0.5,0-0.95-0.08-1.37-0.23
			c-0.3,0.3-0.44,0.58-0.44,0.84c0,0.22,0.06,0.39,0.18,0.49c0.12,0.1,0.35,0.17,0.69,0.2c0.34,0.04,0.91,0.05,1.7,0.05
			C182.16,154.68,182.79,154.75,183.26,154.88z M181.92,159.02c0.38-0.18,0.68-0.41,0.88-0.71c0.2-0.3,0.3-0.62,0.3-0.96
			c0-0.32-0.08-0.57-0.23-0.74c-0.15-0.17-0.44-0.3-0.86-0.38c-0.42-0.08-1.03-0.12-1.84-0.12c-0.28,0-0.6-0.01-0.96-0.03
			c-0.23,0.19-0.38,0.39-0.47,0.6c-0.09,0.21-0.13,0.47-0.13,0.78c0,0.62,0.15,1.07,0.46,1.38c0.31,0.3,0.82,0.45,1.53,0.45
			C181.09,159.28,181.53,159.19,181.92,159.02z M179.35,148.87c-0.24,0.37-0.35,0.82-0.35,1.36c0,0.73,0.16,1.3,0.48,1.69
			c0.32,0.4,0.76,0.6,1.33,0.6c0.4,0,0.73-0.17,0.97-0.5c0.24-0.33,0.37-0.8,0.37-1.4c0-0.65-0.16-1.2-0.47-1.64
			c-0.31-0.44-0.74-0.67-1.29-0.67C179.93,148.31,179.58,148.5,179.35,148.87z"/>
		<path d="M189.2,159.73c0.68-0.77,1.13-1.45,1.38-2.05c0.24-0.6,0.36-1.34,0.36-2.21v-5.43c0-0.31-0.03-0.55-0.09-0.73
			c-0.06-0.18-0.18-0.31-0.37-0.4c-0.19-0.09-0.48-0.13-0.87-0.13c0-0.27,0.05-0.49,0.16-0.66c0.3,0,0.72-0.06,1.26-0.19
			c0.54-0.13,0.92-0.27,1.12-0.41c0.26,0.08,0.39,0.32,0.39,0.71v7c0,1.17-0.28,2.18-0.85,3.03c-0.57,0.85-1.27,1.51-2.09,1.98
			C189.37,160.11,189.24,159.94,189.2,159.73z M190.86,145.2c-0.2-0.2-0.3-0.44-0.3-0.73c0-0.31,0.1-0.56,0.31-0.77
			c0.21-0.21,0.45-0.31,0.74-0.31c0.32,0,0.58,0.1,0.77,0.3c0.2,0.2,0.29,0.46,0.29,0.78c0,0.27-0.1,0.51-0.31,0.72
			c-0.21,0.21-0.46,0.31-0.75,0.31C191.3,145.5,191.06,145.4,190.86,145.2z"/>
		<path d="M196.67,155.44c-0.6-0.35-1.07-0.84-1.4-1.48c-0.33-0.64-0.5-1.38-0.5-2.22c0-0.79,0.17-1.51,0.51-2.16
			c0.34-0.65,0.82-1.15,1.43-1.52c0.61-0.37,1.3-0.55,2.07-0.55c1.24,0,2.22,0.39,2.94,1.15c0.72,0.77,1.07,1.79,1.07,3.07
			c0,0.81-0.17,1.53-0.51,2.17c-0.34,0.64-0.81,1.14-1.42,1.51c-0.61,0.37-1.31,0.55-2.09,0.55
			C197.98,155.96,197.28,155.79,196.67,155.44z M200.49,154.26c0.35-0.57,0.53-1.34,0.53-2.31c0-0.71-0.11-1.34-0.33-1.88
			c-0.22-0.54-0.51-0.96-0.88-1.26c-0.37-0.3-0.77-0.44-1.21-0.44c-0.66,0-1.17,0.27-1.52,0.82c-0.35,0.54-0.52,1.27-0.52,2.18
			c0,1.18,0.21,2.1,0.63,2.76c0.42,0.66,1,0.98,1.73,0.98C199.62,155.11,200.14,154.83,200.49,154.26z"/>
		<path d="M212.03,154.33c0.14,0.18,0.43,0.27,0.9,0.27c0,0.34-0.04,0.62-0.11,0.82c-0.31,0.02-0.66,0.09-1.05,0.19
			c-0.39,0.1-0.72,0.22-0.98,0.36c-0.15-0.07-0.27-0.17-0.34-0.29c-0.07-0.12-0.11-0.37-0.11-0.74c0-0.26,0.02-0.51,0.05-0.74
			c-0.11,0.25-0.3,0.51-0.57,0.78c-0.32,0.32-0.65,0.55-1,0.69c-0.34,0.14-0.75,0.21-1.23,0.21c-0.84,0-1.47-0.24-1.9-0.73
			s-0.64-1.3-0.64-2.43v-2.68c0-0.32-0.02-0.56-0.07-0.73c-0.05-0.17-0.15-0.29-0.32-0.38c-0.17-0.09-0.43-0.14-0.78-0.15
			c0-0.27,0.04-0.49,0.12-0.66c0.37-0.02,0.77-0.09,1.2-0.21c0.43-0.12,0.78-0.25,1.06-0.39c0.26,0.08,0.39,0.34,0.39,0.78v4.03
			c0,0.83,0.11,1.45,0.34,1.86c0.22,0.41,0.6,0.61,1.14,0.61c0.62,0,1.12-0.26,1.5-0.77c0.39-0.52,0.58-1.27,0.58-2.26v-1.81
			c0-0.31-0.03-0.55-0.1-0.72c-0.07-0.17-0.19-0.3-0.38-0.39c-0.19-0.09-0.47-0.14-0.85-0.15c0-0.17,0.01-0.29,0.02-0.38
			c0.01-0.09,0.05-0.18,0.11-0.28c0.45-0.02,0.9-0.08,1.34-0.18c0.44-0.1,0.8-0.21,1.07-0.34c0.26,0.08,0.39,0.34,0.39,0.78v5.1
			C211.82,153.84,211.89,154.15,212.03,154.33z"/>
		<path d="M220.99,148.1c-0.08,0.54-0.12,1.24-0.12,2.09c-0.32,0.11-0.66,0.16-1.01,0.16c-0.02-0.53-0.11-0.9-0.26-1.09
			c-0.15-0.2-0.35-0.29-0.61-0.29c-0.21,0-0.44,0.12-0.68,0.35s-0.43,0.54-0.59,0.93c-0.16,0.39-0.24,0.81-0.24,1.24v1.7
			c0,0.51,0.05,0.9,0.16,1.16c0.11,0.27,0.27,0.45,0.49,0.55c0.22,0.1,0.53,0.16,0.93,0.19c0.06,0.17,0.09,0.42,0.09,0.76
			c-0.54-0.03-1.29-0.05-2.24-0.05c-1.1,0-1.88,0.02-2.34,0.05c0-0.34,0.03-0.6,0.09-0.76c0.48-0.02,0.8-0.14,0.97-0.35
			c0.17-0.21,0.26-0.61,0.26-1.2v-3.52c0-0.31-0.03-0.55-0.1-0.72s-0.19-0.3-0.38-0.39c-0.19-0.09-0.47-0.14-0.85-0.15
			c0-0.27,0.05-0.49,0.16-0.66c0.37-0.02,0.79-0.09,1.26-0.21c0.47-0.12,0.85-0.25,1.12-0.39c0.26,0.08,0.39,0.34,0.39,0.78
			c0,0.4-0.03,0.78-0.11,1.13c-0.07,0.35-0.11,0.55-0.12,0.61c0.02-0.07,0.07-0.21,0.14-0.43c0.07-0.21,0.15-0.38,0.23-0.5
			c0.6-0.96,1.32-1.44,2.15-1.44C220.21,147.67,220.62,147.81,220.99,148.1z"/>
		<path d="M231.77,155.86c-0.51-0.03-1.15-0.05-1.94-0.05c-0.49,0-1.07,0.01-1.76,0.03c-0.08,0.01-0.2,0.02-0.35,0.02
			c0-0.34,0.03-0.6,0.09-0.76c0.44,0,0.75-0.11,0.94-0.34c0.19-0.22,0.28-0.63,0.28-1.21v-2.7c0-0.78-0.14-1.34-0.43-1.67
			c-0.29-0.33-0.7-0.5-1.22-0.5c-0.33,0-0.65,0.1-0.96,0.3s-0.56,0.53-0.75,0.98c-0.2,0.45-0.29,1.01-0.29,1.69v1.9
			c0,0.59,0.09,1,0.27,1.22c0.18,0.22,0.5,0.33,0.96,0.33c0.06,0.18,0.09,0.43,0.09,0.76c-1-0.03-1.7-0.05-2.11-0.05
			c-0.9,0-1.6,0.02-2.11,0.05c0-0.34,0.03-0.6,0.09-0.76c0.46,0,0.78-0.11,0.96-0.33c0.18-0.22,0.27-0.63,0.27-1.22v-3.52
			c0-0.31-0.03-0.55-0.1-0.72s-0.19-0.3-0.38-0.39c-0.19-0.09-0.48-0.14-0.85-0.15c0-0.27,0.05-0.49,0.16-0.66
			c0.37-0.02,0.79-0.09,1.26-0.21c0.48-0.12,0.85-0.25,1.12-0.39c0.26,0.08,0.39,0.34,0.39,0.78c0,0.38-0.04,0.73-0.12,1.05
			c0.02-0.03,0.06-0.1,0.1-0.19c0.04-0.09,0.1-0.18,0.17-0.28c0.24-0.33,0.58-0.63,1.04-0.89c0.45-0.26,0.97-0.39,1.54-0.39
			c0.75,0,1.36,0.23,1.83,0.69c0.47,0.46,0.71,1.2,0.71,2.2v3.05c0,0.59,0.08,1,0.25,1.22c0.17,0.22,0.43,0.33,0.8,0.33
			C231.74,155.27,231.77,155.53,231.77,155.86z"/>
		<path d="M239.64,154.04c0.05,0.18,0.16,0.32,0.31,0.4c0.15,0.08,0.39,0.14,0.71,0.16c0,0.34-0.04,0.62-0.11,0.82
			c-0.3,0.02-0.62,0.09-0.98,0.19c-0.36,0.1-0.68,0.22-0.95,0.36c-0.14-0.06-0.25-0.17-0.32-0.33c-0.07-0.16-0.11-0.4-0.11-0.72
			c0-0.2,0.01-0.36,0.02-0.46c-0.14,0.34-0.35,0.63-0.62,0.87c-0.46,0.4-1.09,0.6-1.88,0.6c-0.73,0-1.3-0.17-1.7-0.5
			c-0.4-0.33-0.59-0.79-0.59-1.38c0-0.7,0.25-1.26,0.76-1.68c0.51-0.42,1.08-0.72,1.7-0.9s1.32-0.32,2.08-0.43
			c0-0.72-0.02-1.22-0.07-1.5c-0.05-0.28-0.15-0.51-0.3-0.7c-0.28-0.35-0.65-0.53-1.1-0.53c-0.53,0-0.92,0.22-1.16,0.66
			c-0.24,0.44-0.38,0.91-0.4,1.4c-0.15,0-0.33-0.01-0.52-0.03c-0.19-0.02-0.32-0.05-0.41-0.09c0.01-0.12,0.02-0.32,0.02-0.6
			c0-0.52-0.04-0.96-0.11-1.33c0.48-0.25,0.98-0.44,1.53-0.59s1.04-0.21,1.49-0.21c0.81,0,1.43,0.23,1.88,0.68
			c0.28,0.29,0.48,0.66,0.59,1.13c0.11,0.47,0.16,1.12,0.16,1.95v1.95C239.56,153.58,239.59,153.85,239.64,154.04z M237.97,151.77
			c-0.57,0.07-1.04,0.16-1.42,0.26c-0.38,0.1-0.71,0.28-0.98,0.55c-0.28,0.27-0.42,0.64-0.42,1.11c0,0.41,0.1,0.73,0.3,0.94
			c0.2,0.21,0.46,0.32,0.76,0.32c0.28,0,0.56-0.09,0.83-0.27c0.27-0.18,0.49-0.45,0.66-0.83c0.18-0.38,0.27-0.85,0.27-1.4V151.77z"
			/>
		<path d="M242.38,155.09c0.47,0,0.8-0.11,0.97-0.33c0.17-0.22,0.26-0.63,0.26-1.22v-7.96c0-0.31-0.03-0.55-0.09-0.73
			c-0.06-0.18-0.18-0.31-0.37-0.4c-0.19-0.09-0.48-0.13-0.87-0.13c0-0.27,0.05-0.49,0.16-0.66c0.3,0,0.72-0.06,1.26-0.19
			c0.54-0.13,0.92-0.27,1.12-0.41c0.26,0.08,0.39,0.32,0.39,0.71v9.77c0,0.59,0.08,1,0.23,1.22c0.15,0.22,0.43,0.33,0.82,0.33
			c0.06,0.2,0.09,0.45,0.09,0.76c-0.62-0.03-1.28-0.05-2.01-0.05c-0.77,0-1.45,0.02-2.04,0.05
			C242.29,155.54,242.32,155.28,242.38,155.09z"/>
	</g>
</g>
<g id="Layer_1">
</g>
</svg>
